<svg width="24" height="25" viewBox="0 0 24 25" fill="none" xmlns="http://www.w3.org/2000/svg">
<path d="M21.2754 14C21.1611 14.0002 21.0513 13.9521 20.9703 13.8661L11.7937 4.10594L2.61712 13.8661C2.44592 14.042 2.17307 14.037 2.00769 13.8549C1.84639 13.6772 1.84639 13.3957 2.00769 13.2181L11.4894 3.1342C11.6577 2.95527 11.9305 2.95527 12.0989 3.1342L21.5806 13.218C21.7486 13.3973 21.7482 13.6875 21.5796 13.8662C21.4988 13.9519 21.3895 14 21.2754 14Z" fill="black" stroke="black"/>
<path d="M21.2754 22C21.1611 22.0002 21.0513 21.9521 20.9703 21.8661L11.7937 12.1059L2.61715 21.8661C2.44595 22.042 2.1731 22.037 2.00772 21.8549C1.84638 21.6772 1.84638 21.3957 2.00772 21.218L11.4894 11.1342C11.6577 10.9553 11.9305 10.9553 12.0989 11.1342L21.5806 21.218C21.7486 21.3973 21.7482 21.6875 21.5796 21.8662C21.4988 21.9519 21.3895 22 21.2754 22Z" fill="black" stroke="black"/>
</svg>
