<svg width="141" height="141" viewBox="0 0 141 141" fill="none" xmlns="http://www.w3.org/2000/svg">
<path d="M72.8898 95.848C72.5 95.8487 72.1253 95.6972 71.8454 95.4258L44.023 67.6014C43.7522 67.3165 43.6038 66.9368 43.6095 66.5437C43.6153 66.1506 43.7748 65.7755 44.0539 65.4986C44.333 65.2217 44.7094 65.0652 45.1025 65.0625C45.4956 65.0599 45.8741 65.2113 46.1569 65.4844L73.9793 93.3091C74.1818 93.5222 74.3174 93.7901 74.3693 94.0795C74.4211 94.369 74.387 94.6673 74.271 94.9375C74.1551 95.2077 73.9624 95.438 73.7169 95.5998C73.4714 95.7617 73.1838 95.8479 72.8898 95.848Z" fill="url(#paint0_linear)"/>
<path d="M83.087 87.9622C82.6972 87.9629 82.3225 87.8115 82.0427 87.5401L54.2203 59.7157C53.9495 59.4307 53.801 59.051 53.8068 58.658C53.8126 58.2649 53.9721 57.8897 54.2511 57.6129C54.5302 57.336 54.9066 57.1794 55.2997 57.1768C55.6928 57.1741 56.0713 57.3256 56.3541 57.5987L84.1765 85.4233C84.3791 85.6365 84.5147 85.9044 84.5666 86.1938C84.6184 86.4832 84.5842 86.7815 84.4683 87.0517C84.3523 87.322 84.1597 87.5522 83.9142 87.7141C83.6687 87.8759 83.3811 87.9622 83.087 87.9622Z" fill="url(#paint1_linear)"/>
<path d="M64.3353 104.404C63.9454 104.404 63.5706 104.253 63.2907 103.982L35.4684 76.1571C35.1976 75.8722 35.0491 75.4925 35.0548 75.0994C35.0606 74.7063 35.2201 74.3311 35.4992 74.0543C35.7783 73.7774 36.1547 73.6208 36.5478 73.6182C36.9409 73.6156 37.3195 73.767 37.6022 74.0401L65.4246 101.865C65.6272 102.078 65.7628 102.346 65.8147 102.635C65.8665 102.925 65.8324 103.223 65.7164 103.493C65.6004 103.763 65.4078 103.994 65.1623 104.156C64.9168 104.317 64.6292 104.404 64.3352 104.404L64.3353 104.404Z" fill="url(#paint2_linear)"/>
<path d="M51.2707 134.262C50.4988 134.264 49.7342 134.113 49.021 133.818C48.3079 133.523 47.6604 133.089 47.1161 132.542L6.91636 92.342C5.81888 91.2371 5.203 89.743 5.20313 88.1857C5.20325 86.6284 5.81937 85.1344 6.91703 84.0297L70.5107 20.4362C71.0505 19.893 71.6919 19.4614 72.3985 19.1662C73.105 18.871 73.8628 18.718 74.6286 18.7157C74.7076 18.7157 74.7877 18.7173 74.8671 18.7206L97.8214 19.5104L97.9781 19.0162C99.1855 15.165 101.593 11.8009 104.848 9.41538C108.104 7.02992 112.037 5.74814 116.073 5.75737C116.873 5.75772 117.672 5.80802 118.465 5.90798C122.874 6.46455 126.948 8.54923 129.979 11.7993C133.01 15.0494 134.805 19.2592 135.052 23.6961C135.3 28.1331 133.984 32.5165 131.334 36.0835C128.684 39.6506 124.866 42.1755 120.547 43.2191L120.005 43.35L120.737 64.5897C120.764 65.3949 120.625 66.197 120.33 66.9464C120.034 67.6959 119.588 68.3769 119.019 68.9473L89.5048 98.4596L89.7446 98.9072C91.4511 102.091 93.9025 104.816 96.8895 106.848C99.8766 108.88 103.311 110.159 106.899 110.577C107.76 110.676 108.625 110.725 109.492 110.725C115.021 110.719 120.356 108.687 124.49 105.015C128.624 101.343 131.27 96.2847 131.928 90.7948C131.97 90.4295 132.145 90.0924 132.42 89.8475C132.694 89.6026 133.049 89.4668 133.416 89.4661C133.476 89.4662 133.536 89.4698 133.596 89.4768C133.992 89.5246 134.354 89.7271 134.602 90.0402C134.725 90.1953 134.815 90.3733 134.869 90.5637C134.922 90.7541 134.937 90.9532 134.913 91.1495C134.298 96.4352 132.047 101.397 128.475 105.341C124.903 109.286 120.189 112.016 114.99 113.151C109.791 114.286 104.367 113.768 99.4763 111.671C94.5857 109.574 90.4721 106.002 87.7103 101.453L87.2583 100.709L55.4252 132.542C54.8809 133.089 54.2334 133.523 53.5203 133.818C52.8071 134.113 52.0425 134.264 51.2707 134.262ZM74.6767 21.7217C73.9138 21.7198 73.1814 22.0209 72.6406 22.5588L9.04377 86.156C8.50633 86.6952 8.2037 87.4249 8.20183 88.1862C8.20079 88.5637 8.2747 88.9375 8.41927 89.2862C8.56385 89.6348 8.77621 89.9513 9.04404 90.2173L49.2414 130.417C49.7797 130.955 50.5096 131.257 51.2706 131.257C52.0316 131.257 52.7615 130.955 53.2998 130.417L116.894 66.8199C117.172 66.5415 117.39 66.209 117.535 65.843C117.68 65.4769 117.747 65.0851 117.735 64.6917L116.395 25.8294C116.368 25.1032 116.067 24.4139 115.554 23.9C115.04 23.3861 114.35 23.0857 113.624 23.059L100.23 22.6005L100.168 23.24C100.116 23.7773 100.091 24.2742 100.091 24.7594C100.107 26.1141 100.294 27.4614 100.648 28.7691L100.803 29.3414L101.392 29.2685C101.721 29.2281 102.053 29.2077 102.385 29.2076C104.201 29.2683 105.941 29.9542 107.31 31.1492C108.679 32.3442 109.594 33.9752 109.899 35.7665C110.205 37.5579 109.883 39.3998 108.987 40.9811C108.092 42.5625 106.678 43.7862 104.985 44.4457C103.291 45.1052 101.422 45.16 99.6933 44.6008C97.9642 44.0415 96.4812 42.9026 95.4948 41.3764C94.5083 39.8503 94.0789 38.0303 94.2791 36.2242C94.4793 34.418 95.2969 32.7363 96.5936 31.4632C96.8878 31.1839 97.2044 30.9292 97.5402 30.7016L97.9487 30.4239L97.8131 29.9488C97.3316 28.2609 97.0867 26.5142 97.0854 24.7589C97.0854 24.2264 97.1228 23.7004 97.1634 23.2109L97.2222 22.4966L74.7667 21.7233L74.6767 21.7217ZM98.4091 33.9513C97.6079 34.9178 97.196 36.1483 97.2537 37.4023C97.3114 38.6563 97.8347 39.8438 98.7213 40.7325C99.6805 41.6536 100.958 42.1686 102.288 42.1702C103.618 42.1718 104.897 41.6598 105.859 40.7411C106.508 40.0954 106.971 39.2853 107.196 38.3975C107.421 37.5096 107.401 36.5772 107.137 35.6999C106.874 34.8226 106.377 34.0334 105.7 33.4165C105.023 32.7996 104.191 32.3781 103.293 32.1972L101.791 31.9921L102.581 33.2346C102.649 33.3412 102.715 33.4493 102.781 33.5575L102.798 33.5839C103.004 33.9345 103.23 34.2733 103.473 34.5989C103.648 34.8069 103.764 35.0581 103.809 35.3261C103.853 35.5942 103.825 35.8693 103.727 36.1228C103.629 36.373 103.466 36.5922 103.254 36.7577C103.042 36.9231 102.79 37.0288 102.523 37.0636C102.458 37.0719 102.393 37.0761 102.328 37.0761C102.092 37.0755 101.86 37.0197 101.65 36.9132C101.439 36.8068 101.257 36.6526 101.117 36.463C100.565 35.7515 100.063 35.0025 99.6148 34.2213L99.0525 33.1952L98.4091 33.9513ZM116.08 8.77C112.905 8.7674 109.802 9.71191 107.167 11.4827C104.532 13.2535 102.485 15.7701 101.288 18.7107L100.916 19.6191L113.729 20.0594C115.213 20.1205 116.62 20.7378 117.67 21.7887C118.72 22.8395 119.337 24.247 119.397 25.7314L119.9 40.3034L120.753 40.0409C124.409 38.9153 127.541 36.5161 129.579 33.2789C131.618 30.0416 132.428 26.1808 131.863 22.3973C131.297 18.6137 129.394 15.1582 126.499 12.6578C123.604 10.1575 119.908 8.7781 116.082 8.76999L116.08 8.77Z" fill="url(#paint3_linear)"/>
<defs>
<linearGradient id="paint0_linear" x1="59.0011" y1="65.0625" x2="59.0011" y2="95.848" gradientUnits="userSpaceOnUse">
<stop stop-color="#4985C5"/>
<stop offset="1" stop-color="#59A9FF"/>
</linearGradient>
<linearGradient id="paint1_linear" x1="69.1984" y1="57.1768" x2="69.1984" y2="87.9623" gradientUnits="userSpaceOnUse">
<stop stop-color="#4985C5"/>
<stop offset="1" stop-color="#59A9FF"/>
</linearGradient>
<linearGradient id="paint2_linear" x1="50.4465" y1="73.6182" x2="50.4465" y2="104.404" gradientUnits="userSpaceOnUse">
<stop stop-color="#4985C5"/>
<stop offset="1" stop-color="#59A9FF"/>
</linearGradient>
<linearGradient id="paint3_linear" x1="70.1425" y1="5.75732" x2="70.1425" y2="134.262" gradientUnits="userSpaceOnUse">
<stop stop-color="#4985C5"/>
<stop offset="1" stop-color="#59A9FF"/>
</linearGradient>
</defs>
</svg>
