<svg width="140" height="141" viewBox="0 0 140 141" fill="none" xmlns="http://www.w3.org/2000/svg">
<path d="M11.8468 116.019L6.8301 113.597C6.66239 113.515 6.47834 113.473 6.29188 113.473C6.05901 113.474 5.83102 113.54 5.63377 113.664C5.43653 113.788 5.27792 113.964 5.17594 114.174C5.10521 114.32 5.06403 114.479 5.05475 114.641C5.04547 114.804 5.06827 114.966 5.12184 115.12C5.17541 115.274 5.25872 115.415 5.36699 115.537C5.47526 115.658 5.60638 115.757 5.75287 115.828L10.7697 118.25C10.9373 118.331 11.1211 118.373 11.3074 118.373C11.588 118.373 11.8603 118.278 12.0798 118.103C12.2993 117.928 12.4529 117.684 12.5156 117.411C12.5783 117.137 12.5462 116.851 12.4247 116.598C12.3032 116.345 12.0995 116.141 11.8468 116.019V116.019Z" fill="url(#paint0_linear)"/>
<path d="M16.4648 113.012L6.83765 108.365C6.67013 108.283 6.48625 108.241 6.29996 108.241C6.01936 108.241 5.74704 108.336 5.52757 108.511C5.30809 108.686 5.15446 108.93 5.09182 109.204C5.02917 109.477 5.06123 109.764 5.18274 110.017C5.30425 110.27 5.50802 110.474 5.76069 110.596L15.3878 115.243C15.5554 115.325 15.7392 115.367 15.9255 115.367C16.1584 115.366 16.3865 115.3 16.5838 115.176C16.7811 115.053 16.9397 114.876 17.0417 114.667C17.1846 114.371 17.2041 114.03 17.0959 113.72C16.9877 113.41 16.7607 113.155 16.4648 113.012L16.4648 113.012Z" fill="url(#paint1_linear)"/>
<path d="M138.866 79.9146L105.52 63.8167V24.4783C105.519 24.2455 105.453 24.0175 105.329 23.8203C105.206 23.6231 105.029 23.4646 104.82 23.3626L70.6332 6.85889C70.4653 6.7779 70.2813 6.73584 70.0948 6.73584C69.9084 6.73584 69.7243 6.7779 69.5564 6.85889L35.3701 23.3626C35.1608 23.4645 34.9843 23.623 34.8605 23.8202C34.7368 24.0173 34.6708 24.2452 34.67 24.478V63.6814L1.04387 79.9146C0.834575 80.0165 0.658035 80.1751 0.534283 80.3722C0.410531 80.5694 0.344523 80.7973 0.34375 81.0301V121.111C0.344483 121.343 0.410474 121.571 0.53423 121.768C0.657987 121.966 0.834549 122.124 1.04387 122.226L35.2299 138.73C35.3979 138.811 35.582 138.853 35.7685 138.853C35.9551 138.853 36.1392 138.811 36.3072 138.73L69.9547 122.486L103.602 138.73C103.77 138.811 103.954 138.853 104.141 138.853C104.328 138.853 104.512 138.811 104.68 138.73L138.866 122.226C139.075 122.124 139.252 121.966 139.375 121.768C139.499 121.571 139.565 121.343 139.566 121.111V81.0303C139.565 80.7975 139.499 80.5696 139.375 80.3724C139.252 80.1752 139.075 80.0166 138.866 79.9146ZM92.5606 71.592L123.795 86.6705L117.634 89.6444L86.4006 74.5658L92.5606 71.592ZM118.936 91.7665L124.711 88.979V100.228L118.936 103.016V91.7665ZM95.41 70.2165L104.244 65.9518L135.478 81.03L126.629 85.3018C126.584 85.2708 126.537 85.2432 126.488 85.2194L95.41 70.2165ZM103.042 63.6813L71.3336 78.989V41.7593L82.4127 36.4438V48.4376C82.4127 48.6473 82.4659 48.8535 82.5674 49.0371C82.6689 49.2206 82.8153 49.3753 82.9929 49.4868C83.1705 49.5983 83.3736 49.6628 83.583 49.6744C83.7923 49.686 84.0012 49.6442 84.1901 49.553L92.4417 45.5693C92.651 45.4675 92.8276 45.309 92.9514 45.1118C93.0752 44.9146 93.1413 44.6867 93.142 44.4539V31.2312L103.042 26.4517V63.6813ZM84.8902 46.464V35.2147L90.6646 32.4269V43.6762L84.8902 46.464ZM70.0949 9.35001L101.432 24.478L92.5835 28.7496C92.5384 28.7187 92.4911 28.6912 92.4419 28.6673L61.2609 13.6146L70.0949 9.35001ZM58.4579 15.0125L89.7486 30.1183L83.5883 33.0924L52.31 17.9924L58.4579 15.0125ZM49.4021 19.3394L80.7717 34.4835L70.0965 39.6057L70.0572 39.586C70.0411 39.5748 70.0241 39.5648 70.0066 39.556L38.758 24.478L49.4021 19.3394ZM37.1474 26.4515L65.9717 40.3617C65.9867 40.372 66.0023 40.3812 66.0186 40.3893L68.8562 41.7591V79.0883L37.1474 63.7808V26.4515ZM35.7687 65.9021L67.1056 81.0301L58.2573 85.3018C58.2123 85.2708 58.1649 85.2432 58.1157 85.2194L26.9346 70.1668L35.7687 65.9021ZM24.1317 71.5647L55.4225 86.6705L49.262 89.6444L17.9838 74.5444L24.1317 71.5647ZM56.3384 88.979V100.228L50.564 103.016V91.7665L56.3384 88.979ZM34.5299 135.64L2.82121 120.333V83.0036L31.6461 96.914C31.6609 96.9241 31.6763 96.9333 31.6923 96.9413L34.5299 98.311V135.64ZM35.7702 96.1576L35.7303 96.1375C35.7143 96.1266 35.6975 96.1168 35.6802 96.108L4.43175 81.0301L15.0759 75.8916L46.4455 91.0357L35.7702 96.1576ZM37.0074 98.3113L48.0865 92.996V104.99C48.0865 105.199 48.1397 105.406 48.2412 105.589C48.3427 105.773 48.4891 105.928 48.6667 106.039C48.8443 106.15 49.0473 106.215 49.2567 106.227C49.4661 106.238 49.675 106.196 49.8638 106.105L58.1157 102.121C58.325 102.02 58.5016 101.861 58.6253 101.664C58.7491 101.467 58.8151 101.239 58.8158 101.006V87.7833L68.7161 83.0039V120.333L37.0074 135.64L37.0074 98.3113ZM102.902 135.64L71.1936 120.333V83.0036L100.018 96.914C100.033 96.9242 100.048 96.9333 100.064 96.9413L102.902 98.311V135.64ZM104.143 96.1577L104.103 96.1378C104.087 96.1268 104.07 96.1169 104.053 96.1081L72.9073 81.0799L83.5513 75.9414L114.818 91.0357L104.143 96.1577ZM137.089 120.333L105.38 135.64V98.3113L116.459 92.996V104.99C116.459 105.199 116.512 105.406 116.614 105.589C116.715 105.773 116.861 105.928 117.039 106.039C117.217 106.15 117.42 106.215 117.629 106.227C117.839 106.238 118.047 106.196 118.236 106.105L126.488 102.121C126.697 102.02 126.874 101.861 126.998 101.664C127.121 101.467 127.187 101.239 127.188 101.006V87.7833L137.089 83.0039L137.089 120.333Z" fill="url(#paint2_linear)"/>
<path d="M80.22 116.019L75.2032 113.597C75.0355 113.515 74.8514 113.473 74.6649 113.473C74.3843 113.473 74.1121 113.568 73.8927 113.743C73.6732 113.918 73.5197 114.162 73.457 114.435C73.3944 114.709 73.4265 114.996 73.5479 115.248C73.6694 115.501 73.8731 115.706 74.1257 115.828L79.143 118.25C79.3105 118.331 79.4943 118.373 79.6805 118.373C79.9134 118.372 80.1415 118.306 80.3388 118.182C80.536 118.059 80.6947 117.882 80.7968 117.673C80.9396 117.377 80.9591 117.036 80.8509 116.726C80.7427 116.416 80.5158 116.161 80.22 116.019V116.019Z" fill="url(#paint3_linear)"/>
<path d="M84.8362 113.012L75.209 108.365C75.0414 108.283 74.8575 108.241 74.6712 108.241C74.3906 108.241 74.1182 108.336 73.8987 108.511C73.6792 108.686 73.5256 108.93 73.4629 109.204C73.4003 109.477 73.4323 109.764 73.5538 110.017C73.6753 110.27 73.8791 110.474 74.1318 110.596L83.759 115.243C83.9265 115.325 84.1105 115.367 84.2968 115.367C84.5773 115.367 84.8496 115.272 85.0691 115.097C85.2885 114.922 85.4421 114.678 85.5048 114.405C85.5674 114.131 85.5354 113.845 85.414 113.592C85.2925 113.339 85.0888 113.134 84.8362 113.012Z" fill="url(#paint4_linear)"/>
<path d="M46.1729 59.4659L41.1562 57.044C40.9885 56.9625 40.8045 56.9202 40.6181 56.9204C40.3375 56.9204 40.0652 57.0155 39.8458 57.1904C39.6264 57.3652 39.4728 57.6093 39.4102 57.8828C39.3475 58.1563 39.3796 58.443 39.5011 58.6958C39.6226 58.9487 39.8263 59.1529 40.0789 59.275L45.0958 61.6969C45.2633 61.7783 45.4472 61.8205 45.6335 61.8203C45.9141 61.8204 46.1864 61.7253 46.4058 61.5505C46.6253 61.3757 46.7789 61.1316 46.8416 60.8581C46.9042 60.5846 46.8722 60.298 46.7507 60.0451C46.6292 59.7921 46.4255 59.588 46.1729 59.4659V59.4659Z" fill="url(#paint5_linear)"/>
<path d="M50.791 56.4611L41.1638 51.8135C40.9962 51.7321 40.8123 51.6898 40.626 51.6899C40.3454 51.6899 40.0731 51.7851 39.8537 51.9599C39.6342 52.1347 39.4806 52.3789 39.418 52.6524C39.3553 52.9259 39.3874 53.2126 39.5089 53.4655C39.6304 53.7184 39.8342 53.9226 40.0869 54.0446L49.714 58.6922C49.8815 58.7737 50.0654 58.8159 50.2517 58.8158C50.4846 58.815 50.7127 58.749 50.91 58.6251C51.1073 58.5013 51.2659 58.3247 51.3679 58.1153C51.4387 57.9688 51.4798 57.8098 51.4891 57.6474C51.4984 57.485 51.4756 57.3223 51.4221 57.1687C51.3685 57.0151 51.2852 56.8735 51.1769 56.7521C51.0686 56.6307 50.9375 56.5318 50.791 56.4611V56.4611Z" fill="url(#paint6_linear)"/>
<defs>
<linearGradient id="paint0_linear" x1="8.79981" y1="113.473" x2="8.79981" y2="118.373" gradientUnits="userSpaceOnUse">
<stop stop-color="#4985C5"/>
<stop offset="1" stop-color="#59A9FF"/>
</linearGradient>
<linearGradient id="paint1_linear" x1="11.1128" y1="108.241" x2="11.1128" y2="115.367" gradientUnits="userSpaceOnUse">
<stop stop-color="#4985C5"/>
<stop offset="1" stop-color="#59A9FF"/>
</linearGradient>
<linearGradient id="paint2_linear" x1="69.9549" y1="6.73584" x2="69.9549" y2="138.853" gradientUnits="userSpaceOnUse">
<stop stop-color="#4985C5"/>
<stop offset="1" stop-color="#59A9FF"/>
</linearGradient>
<linearGradient id="paint3_linear" x1="77.1729" y1="113.473" x2="77.1729" y2="118.373" gradientUnits="userSpaceOnUse">
<stop stop-color="#4985C5"/>
<stop offset="1" stop-color="#59A9FF"/>
</linearGradient>
<linearGradient id="paint4_linear" x1="79.4839" y1="108.241" x2="79.4839" y2="115.367" gradientUnits="userSpaceOnUse">
<stop stop-color="#4985C5"/>
<stop offset="1" stop-color="#59A9FF"/>
</linearGradient>
<linearGradient id="paint5_linear" x1="43.1259" y1="56.9204" x2="43.1259" y2="61.8203" gradientUnits="userSpaceOnUse">
<stop stop-color="#4985C5"/>
<stop offset="1" stop-color="#59A9FF"/>
</linearGradient>
<linearGradient id="paint6_linear" x1="45.4389" y1="51.6899" x2="45.4389" y2="58.8158" gradientUnits="userSpaceOnUse">
<stop stop-color="#4985C5"/>
<stop offset="1" stop-color="#59A9FF"/>
</linearGradient>
</defs>
</svg>
