<svg width="141" height="141" viewBox="0 0 141 141" fill="none" xmlns="http://www.w3.org/2000/svg">
<g clip-path="url(#clip0)">
<path d="M109.944 111.958C106.983 111.958 104.088 111.08 101.625 109.435C99.1629 107.789 97.2437 105.451 96.1105 102.715C94.9772 99.9787 94.6807 96.968 95.2584 94.0634C95.8362 91.1589 97.2623 88.4908 99.3564 86.3968C101.451 84.3027 104.119 82.8767 107.023 82.2989C109.928 81.7212 112.938 82.0177 115.674 83.1511C118.41 84.2844 120.749 86.2036 122.394 88.666C124.04 91.1284 124.918 94.0234 124.918 96.9849C124.913 100.955 123.334 104.761 120.527 107.568C117.72 110.375 113.914 111.954 109.944 111.958ZM109.944 84.4722C107.469 84.4722 105.05 85.2061 102.993 86.581C100.935 87.9559 99.3311 89.9101 98.3841 92.1965C97.4371 94.4828 97.1893 96.9987 97.6721 99.4259C98.1549 101.853 99.3466 104.083 101.096 105.832C102.846 107.582 105.076 108.774 107.503 109.257C109.93 109.74 112.446 109.492 114.733 108.545C117.019 107.598 118.973 105.994 120.348 103.936C121.723 101.879 122.457 99.4596 122.457 96.9849C122.453 93.6674 121.134 90.4869 118.788 88.1411C116.442 85.7954 113.262 84.4759 109.944 84.4722Z" fill="url(#paint0_linear)"/>
<path d="M126.194 112.587L126.429 112.445C126.867 112.186 127.328 111.968 127.807 111.794C129.216 111.377 130.45 110.511 131.321 109.328L131.337 109.303L131.351 109.276C131.935 107.941 132.065 106.451 131.723 105.035C131.575 104.301 131.553 103.548 131.657 102.807L131.662 102.771L131.676 102.741C131.944 102.082 132.323 101.474 132.795 100.942C133.83 99.8617 134.479 98.4696 134.64 96.9823L134.643 96.955L134.64 96.9249C134.48 95.4412 133.834 94.052 132.803 92.9737C132.327 92.4396 131.946 91.8284 131.676 91.1663L131.662 91.1335L131.657 91.1007C131.552 90.3624 131.573 89.6116 131.72 88.8804C132.064 87.4625 131.934 85.9712 131.351 84.6339L131.337 84.6038L131.321 84.5792C130.447 83.3929 129.208 82.5264 127.793 82.1128C127.096 81.8813 126.444 81.5317 125.866 81.0792L125.838 81.0601L125.819 81.0327C125.368 80.4582 125.02 79.8096 124.791 79.1159C124.376 77.6986 123.508 76.4565 122.319 75.5804L122.295 75.5612L122.267 75.5503C120.931 74.9656 119.441 74.8341 118.023 75.1757C117.755 75.2308 117.482 75.2683 117.209 75.2878C117.047 75.3015 116.883 75.3069 116.722 75.3069C116.412 75.3069 116.102 75.285 115.795 75.2413L115.762 75.2358L115.729 75.2249C115.365 75.0766 115.016 74.8935 114.688 74.678C114.422 74.5086 114.171 74.3184 113.936 74.1093C112.855 73.0729 111.462 72.4222 109.973 72.2581L109.943 72.2554L109.916 72.2581C108.432 72.4179 107.041 73.0639 105.962 74.0956C105.427 74.571 104.816 74.9528 104.155 75.2249L104.125 75.2358L104.089 75.2413C103.352 75.3464 102.602 75.3251 101.871 75.1784C100.453 74.8334 98.9596 74.964 97.6223 75.5503L97.5949 75.5612L97.5703 75.5804C96.3839 76.4536 95.5166 77.6917 95.1012 79.105C94.8701 79.8017 94.5215 80.4537 94.0703 81.0327L94.0484 81.0601L94.0211 81.0819C93.4452 81.531 92.797 81.8787 92.1043 82.1101C90.687 82.5248 89.4449 83.3932 88.5688 84.5819L88.5496 84.6038L88.5387 84.6339C87.9547 85.969 87.824 87.4586 88.1668 88.8749C88.3148 89.6087 88.336 90.3624 88.2297 91.1034L88.227 91.1362L88.2133 91.1691C87.9458 91.8253 87.5696 92.4317 87.1004 92.9628C86.063 94.043 85.4121 95.4361 85.2492 96.9249L85.2438 96.955L85.2492 96.9851C85.4086 98.4684 86.0536 99.8574 87.084 100.936C87.5612 101.47 87.9432 102.081 88.2133 102.744L88.227 102.777L88.2297 102.809C88.337 103.546 88.3166 104.297 88.1695 105.027C87.8257 106.446 87.9554 107.938 88.5387 109.276L88.5523 109.303L88.5688 109.328C89.4459 110.516 90.6876 111.384 92.1043 111.8C92.5787 111.971 93.0356 112.187 93.4688 112.445L93.7012 112.587L90.4145 118.056L88.041 122.002L80.9727 133.762L89.8184 132.409L93.0285 140.628L105.503 119.85L105.683 119.601L105.957 119.814L105.968 119.825C107.048 120.85 108.435 121.492 109.916 121.652L109.943 121.655L109.973 121.652C111.45 121.489 112.834 120.849 113.914 119.828L113.922 119.817L114.225 119.585L126.861 140.628L130.068 132.409L138.917 133.762L126.194 112.587ZM93.5562 134.372L91.5875 129.335L86.3785 130.134L92.5828 119.809L94.9535 115.863L95.2652 115.346L95.4074 115.644L95.4839 115.806C95.829 116.528 96.3003 117.183 96.8757 117.739C97.0925 117.953 97.3247 118.15 97.5703 118.33L97.5949 118.349L97.6222 118.36C98.4649 118.731 99.3758 118.921 100.296 118.92C100.828 118.919 101.357 118.856 101.874 118.732C102.077 118.701 102.282 118.677 102.487 118.655L103.025 118.603L93.5562 134.372ZM115.068 115.994L115.029 116.005C113.994 116.36 113.039 116.915 112.218 117.638L112.199 117.654C111.594 118.252 110.835 118.671 110.006 118.866L109.943 118.879L109.883 118.866C109.056 118.673 108.298 118.256 107.693 117.66L107.677 117.643C106.857 116.92 105.902 116.364 104.868 116.008L104.836 115.997C104.392 115.885 103.937 115.828 103.479 115.828H103.408C102.765 115.841 102.123 115.896 101.486 115.992L101.459 116C101.085 116.096 100.701 116.145 100.316 116.145C100.269 116.145 100.225 116.145 100.179 116.142C99.7955 116.131 99.4152 116.071 99.0468 115.964L98.9812 115.945L98.932 115.899C98.4982 115.484 98.1507 114.988 97.9093 114.439C97.8162 114.234 97.7394 114.021 97.6797 113.804L97.6714 113.782C97.3159 112.724 96.7546 111.746 96.0199 110.906L95.9925 110.878C95.1539 110.147 94.1804 109.587 93.1269 109.23L93.1023 109.224C92.3006 109.003 91.574 108.568 90.9996 107.966L90.9531 107.917L90.9367 107.854C90.7082 107.072 90.695 106.243 90.8984 105.453L90.9039 105.429C91.1226 104.322 91.1226 103.183 90.9039 102.076L90.9011 102.057L90.8957 102.041C90.5388 101.006 89.9834 100.05 89.2605 99.2272L89.2441 99.2081C88.6462 98.6036 88.227 97.8456 88.0328 97.0179L88.0191 96.955L88.0328 96.8921C88.2254 96.0657 88.6427 95.3087 89.2386 94.7046L89.2578 94.6854C89.9833 93.8633 90.5399 92.9062 90.8957 91.869L90.9011 91.8499L90.9039 91.8308C91.1221 90.7277 91.1231 89.5927 90.9066 88.4894L90.9011 88.4647C90.6972 87.6732 90.7086 86.8415 90.934 86.0558L90.9531 85.9929L90.9996 85.9436C91.5717 85.3439 92.2954 84.9102 93.0941 84.6886L93.116 84.6831C94.1742 84.3261 95.1517 83.7639 95.9925 83.0288L96.009 83.0179L96.0199 83.0042C96.7519 82.1652 97.3121 81.1907 97.6687 80.1358L97.6769 80.114C97.8962 79.3113 98.3312 78.584 98.9347 78.0112L98.9812 77.9648L99.0468 77.9456C99.8293 77.7177 100.659 77.7054 101.448 77.9101L101.472 77.9155C102.578 78.1306 103.716 78.1306 104.822 77.9155L104.841 77.9101L104.857 77.9046C105.895 77.551 106.853 76.9962 107.677 76.2722L107.693 76.2558C108.297 75.6579 109.055 75.2387 109.883 75.0444L109.943 75.0308L110.006 75.0444C110.833 75.2364 111.59 75.6539 112.194 76.2503L112.213 76.2667C112.944 76.9098 113.782 77.4214 114.687 77.7788C114.802 77.8226 114.917 77.8636 115.032 77.9046L115.048 77.9128L115.068 77.9155C115.62 78.0227 116.181 78.0767 116.744 78.0769C116.9 78.0769 117.053 78.0714 117.209 78.0632C117.612 78.0441 118.013 77.9956 118.409 77.9183L118.436 77.9128C119.227 77.7053 120.058 77.7167 120.843 77.9456L120.908 77.9648L120.955 78.0112C121.556 78.5824 121.989 79.3065 122.21 80.1058L122.215 80.1276C122.573 81.1853 123.135 82.1626 123.869 83.0042L123.88 83.0179L123.897 83.0315C124.736 83.7632 125.711 84.3233 126.765 84.6804L126.787 84.6858C127.588 84.9069 128.314 85.3417 128.887 85.9437L128.934 85.9929L128.953 86.0558C129.18 86.8382 129.193 87.6673 128.991 88.4566L128.985 88.4812C128.767 89.5879 128.767 90.7268 128.985 91.8335L128.988 91.8499L128.994 91.8691C129.348 92.9056 129.903 93.8624 130.626 94.6855L130.645 94.7046C131.242 95.3083 131.661 96.0654 131.854 96.8921L131.87 96.955L131.854 97.0179C131.663 97.8451 131.246 98.6028 130.648 99.2054L130.632 99.2245C129.906 100.047 129.35 101.004 128.994 102.041L128.988 102.06L128.983 102.076C128.767 103.181 128.767 104.316 128.983 105.421L128.988 105.445C129.191 106.237 129.179 107.069 128.953 107.854L128.936 107.917L128.89 107.966C128.316 108.566 127.592 108.999 126.793 109.221L126.771 109.227C125.714 109.585 124.737 110.146 123.894 110.878L123.88 110.892L123.869 110.906C123.136 111.744 122.576 112.719 122.221 113.774L122.212 113.796C121.991 114.598 121.556 115.324 120.955 115.899L120.908 115.945L120.843 115.964C120.43 116.083 120.003 116.144 119.574 116.145C119.192 116.145 118.811 116.096 118.442 116L118.417 115.994C117.311 115.779 116.174 115.779 115.068 115.994L115.068 115.994ZM128.299 129.335L126.333 134.372L116.867 118.603L117.408 118.655C117.613 118.677 117.818 118.701 118.043 118.737C118.551 118.858 119.071 118.919 119.593 118.92C120.514 118.921 121.424 118.731 122.267 118.36L122.294 118.349L122.319 118.33C123.211 117.671 123.928 116.803 124.405 115.803L124.624 115.344L133.508 130.131L128.299 129.335Z" fill="url(#paint1_linear)"/>
<path d="M116.557 40.1839L60.5297 13.1355C60.3403 13.0437 60.1325 12.9961 59.922 12.9961C59.7115 12.9961 59.5037 13.0437 59.3142 13.1355L3.28703 40.1839C3.05066 40.2985 2.85121 40.4772 2.71138 40.6996C2.57155 40.922 2.49696 41.1792 2.49609 41.4419V107.13C2.49696 107.392 2.57152 107.649 2.7113 107.872C2.85108 108.094 3.05046 108.273 3.28677 108.388L59.3142 135.436C59.5037 135.528 59.7115 135.575 59.922 135.575C60.1325 135.575 60.3403 135.528 60.5297 135.436L92.6789 119.914L95.3068 115.541L90.3547 117.933L61.318 131.95V69.3664L80.743 60.0479V80.71C80.7422 80.9464 80.8016 81.179 80.9158 81.386C81.0299 81.5929 81.195 81.7673 81.3953 81.8927C81.5956 82.0189 81.8248 82.0921 82.0612 82.1052C82.2976 82.1184 82.5334 82.0712 82.7465 81.968L96.2705 75.4384C96.5069 75.3238 96.7064 75.1451 96.8463 74.9227C96.9862 74.7003 97.0608 74.4431 97.0617 74.1804V52.1123L114.551 43.6694V77.8731L114.639 77.9065C114.745 77.9471 114.851 77.9853 114.957 78.0232L114.987 78.0352L115.023 78.0462L115.042 78.0499C115.602 78.1586 116.172 78.2134 116.744 78.2136C116.902 78.2136 117.057 78.2082 117.216 78.1997L117.345 78.193V41.4419C117.345 41.1794 117.271 40.9224 117.131 40.7C116.992 40.4776 116.793 40.2988 116.557 40.1839ZM93.586 50.6867L82.0362 56.2633L29.3226 30.8157L40.8484 25.2257L93.586 50.6867ZM59.5014 66.7239L7.10902 41.4419L26.0088 32.3188L78.877 57.8423L59.9209 66.9383L59.6603 66.8117L59.6362 66.7973C59.593 66.7698 59.548 66.7453 59.5014 66.7239ZM5.29322 106.251V43.6694L53.3568 66.8601L53.3886 66.8806C53.4289 66.9039 53.4724 66.9268 53.5146 66.9482L58.5233 69.3661V131.95L5.29322 106.251ZM83.5375 78.4825V58.642L94.2643 53.4614V73.3019L83.5375 78.4825ZM112.735 41.4419L96.706 49.179L96.5054 49.026C96.4316 48.9695 96.3531 48.9195 96.2707 48.8765L43.9876 23.6383L59.9206 15.9481L112.735 41.4419Z" fill="url(#paint2_linear)"/>
<path d="M13.991 90.2563H13.991C13.297 90.2563 12.7344 90.819 12.7344 91.513V99.0296C12.7344 99.7237 13.297 100.286 13.991 100.286C14.6851 100.286 15.2477 99.7237 15.2477 99.0296V91.513C15.2477 90.819 14.6851 90.2563 13.991 90.2563Z" fill="url(#paint3_linear)"/>
<path d="M19.1102 88.9995H19.1102C18.4161 88.9995 17.8535 89.5621 17.8535 90.2562V101.694C17.8535 102.388 18.4161 102.951 19.1102 102.951C19.8042 102.951 20.3668 102.388 20.3668 101.694V90.2562C20.3668 89.5621 19.8042 88.9995 19.1102 88.9995Z" fill="url(#paint4_linear)"/>
</g>
<defs>
<linearGradient id="paint0_linear" x1="109.944" y1="82.0112" x2="109.944" y2="111.958" gradientUnits="userSpaceOnUse">
<stop stop-color="#4985C5"/>
<stop offset="1" stop-color="#59A9FF"/>
</linearGradient>
<linearGradient id="paint1_linear" x1="109.945" y1="72.2554" x2="109.945" y2="140.628" gradientUnits="userSpaceOnUse">
<stop stop-color="#4985C5"/>
<stop offset="1" stop-color="#59A9FF"/>
</linearGradient>
<linearGradient id="paint2_linear" x1="59.9206" y1="12.9961" x2="59.9206" y2="135.575" gradientUnits="userSpaceOnUse">
<stop stop-color="#4985C5"/>
<stop offset="1" stop-color="#59A9FF"/>
</linearGradient>
<linearGradient id="paint3_linear" x1="13.991" y1="90.2563" x2="13.991" y2="100.286" gradientUnits="userSpaceOnUse">
<stop stop-color="#4985C5"/>
<stop offset="1" stop-color="#59A9FF"/>
</linearGradient>
<linearGradient id="paint4_linear" x1="19.1102" y1="88.9995" x2="19.1102" y2="102.951" gradientUnits="userSpaceOnUse">
<stop stop-color="#4985C5"/>
<stop offset="1" stop-color="#59A9FF"/>
</linearGradient>
<clipPath id="clip0">
<rect width="140" height="140" fill="white" transform="translate(0.597656 0.0102539)"/>
</clipPath>
</defs>
</svg>
