<svg width="160" height="160" viewBox="0 0 160 160" fill="none" xmlns="http://www.w3.org/2000/svg">
<path d="M85.1756 1C86.38 1.00273 87.542 1.44471 88.4438 2.24306C89.3456 3.04141 89.9252 4.1413 90.0739 5.33649L90.4445 8.04987C90.788 11.31 92.0179 14.4137 94.0007 17.0243C95.9835 19.6348 98.6434 21.6524 101.692 22.858C102.882 23.2958 103.9 23.7181 104.915 24.1949C107.181 25.2051 109.636 25.7233 112.117 25.7154C116.44 25.679 120.629 24.2107 124.028 21.5401L125.828 20.1761C126.696 19.5106 127.761 19.1514 128.855 19.1545C129.496 19.151 130.132 19.2745 130.726 19.5176C131.319 19.7608 131.859 20.119 132.314 20.5715L139.455 27.9521C140.295 28.8025 140.799 29.928 140.873 31.1208C140.948 32.3136 140.588 33.4932 139.861 34.4416L138.505 36.2271C136.366 38.8675 134.987 42.0415 134.517 45.4074C134.047 48.7733 134.504 52.2036 135.839 55.3291C136.324 56.4212 136.761 57.5423 137.181 58.6222C138.395 61.6636 140.415 64.3161 143.025 66.2939C145.635 68.2717 148.735 69.4996 151.991 69.8453L154.73 70.2183C155.922 70.3573 157.019 70.935 157.808 71.839C158.598 72.743 159.022 73.9085 158.999 75.1083V85.3251C159.001 86.5211 158.568 87.6771 157.78 88.5772C156.993 89.4773 155.904 90.06 154.719 90.2166L152.002 90.5866C148.745 90.9331 145.645 92.1608 143.034 94.1377C140.423 96.1146 138.4 98.766 137.183 101.807C136.763 102.886 136.328 104.002 135.839 105.041C134.504 108.164 134.047 111.592 134.515 114.957C134.983 118.321 136.36 121.494 138.497 124.134L139.863 125.932C140.589 126.88 140.948 128.058 140.874 129.25C140.799 130.442 140.297 131.566 139.458 132.416L132.202 139.602C131.746 140.058 131.205 140.419 130.609 140.664C130.014 140.909 129.375 141.034 128.731 141.031C127.636 141.034 126.571 140.674 125.702 140.008L123.914 138.653C120.484 135.963 116.258 134.486 111.898 134.455C109.462 134.443 107.05 134.942 104.818 135.917C104.445 136.071 104.072 136.232 103.694 136.395C103.013 136.689 102.309 136.993 101.558 137.27C98.5125 138.481 95.8559 140.501 93.8751 143.112C91.8944 145.723 90.6647 148.826 90.3191 152.085L90.0112 154.793C89.8298 155.963 89.2368 157.029 88.3389 157.801C87.441 158.572 86.2973 158.997 85.1136 159H74.8851C73.6843 158.998 72.525 158.56 71.6241 157.766C70.7231 156.972 70.1421 155.877 69.9896 154.686L69.6783 151.95C69.3285 148.692 68.0963 145.591 66.1143 142.982C64.1323 140.372 61.4757 138.353 58.4309 137.142C57.2412 136.704 56.2227 136.282 55.2076 135.805C52.9412 134.795 50.4865 134.277 48.0053 134.285C43.6826 134.321 39.4939 135.789 36.0947 138.46L34.2947 139.824C33.4264 140.49 32.3621 140.849 31.2681 140.846C30.6238 140.849 29.9852 140.724 29.3894 140.478C28.7936 140.233 28.2523 139.872 27.7968 139.416L20.6059 132.234C19.7661 131.383 19.2623 130.258 19.1876 129.065C19.1129 127.872 19.4724 126.693 20.1996 125.744L21.5555 123.959C23.6968 121.315 25.0759 118.137 25.5442 114.768C26.0125 111.398 25.5523 107.964 24.2132 104.837C23.6996 103.747 23.2526 102.576 22.8793 101.564C21.666 98.5222 19.6455 95.8697 17.0358 93.8919C14.426 91.9141 11.326 90.6862 8.06977 90.3404L5.33112 89.9675C4.13789 89.8187 3.03981 89.2401 2.24255 88.34C1.44528 87.4398 1.00352 86.2799 1 85.0774V74.8607C1.00412 73.6565 1.44749 72.4951 2.24693 71.5946C3.04637 70.694 4.14693 70.116 5.34216 69.9692L8.05755 69.5992C11.3175 69.2543 14.4214 68.0255 17.0341 66.0456C19.6469 64.0657 21.6693 61.4098 22.8831 58.3646C23.271 57.2682 23.7178 56.1935 24.2214 55.1452C25.5563 52.0217 26.0141 48.5933 25.5458 45.229C25.0774 41.8646 23.7006 38.6917 21.5634 36.0515L20.1978 34.2536C19.4713 33.3052 19.1124 32.1259 19.1874 30.9336C19.2624 29.7412 19.7662 28.6163 20.6058 27.7663L27.7967 20.5837C28.2522 20.1279 28.7935 19.767 29.3894 19.5217C29.9852 19.2764 30.6237 19.1516 31.268 19.1545C32.363 19.1515 33.4282 19.5114 34.297 20.1778L36.0845 21.5322C39.4909 24.2088 43.6888 25.68 48.0208 25.7154C50.507 25.7227 52.9671 25.2087 55.2424 24.2066C55.6157 24.053 55.989 23.8919 56.3677 23.7284C57.0483 23.4345 57.7521 23.1305 58.5028 22.8543C61.5482 21.6432 64.2048 19.6229 66.1855 17.0118C68.1663 14.4006 69.3959 11.2979 69.7416 8.03872L70.0502 5.3254C70.2008 4.13222 70.7811 3.03484 71.6824 2.23867C72.5838 1.4425 73.7444 1.00213 74.9471 1H85.1756ZM79.9684 113.446C86.5573 113.438 92.9961 111.478 98.4709 107.812C103.946 104.146 108.211 98.9392 110.727 92.8498C113.244 86.7603 113.898 80.0616 112.608 73.6002C111.318 67.1388 108.142 61.2049 103.48 56.5485C98.8185 51.892 92.881 48.7221 86.4182 47.4394C79.9554 46.1567 73.2573 46.8187 67.1707 49.3419C61.0841 51.8651 55.8821 56.136 52.2223 61.615C48.5624 67.094 46.6091 73.535 46.6091 80.1238C46.624 88.9633 50.1446 97.4358 56.3986 103.683C62.6525 109.93 71.129 113.441 79.9684 113.446V113.446ZM85.1756 0H74.9471C73.501 0.00307734 72.1056 0.532778 71.0217 1.49005C69.9378 2.44732 69.2397 3.76662 69.0579 5.20124L68.748 7.92568C68.4247 11.003 67.2662 13.9333 65.3978 16.3998C63.5294 18.8662 61.0223 20.775 58.1475 21.9195C56.9697 22.3529 55.9159 22.8483 54.862 23.2817C52.7064 24.2312 50.3762 24.7195 48.0208 24.7154C43.91 24.6871 39.926 23.2893 36.6987 20.743L34.901 19.3808C33.8573 18.5847 32.5808 18.1538 31.2681 18.1545C30.4927 18.1525 29.7245 18.3035 29.0075 18.599C28.2906 18.8944 27.639 19.3284 27.0901 19.8762L19.8992 27.0588C18.8864 28.079 18.2779 29.432 18.1867 30.8667C18.0955 32.3014 18.5278 33.7204 19.4033 34.8607L20.767 36.6563C22.7937 39.1546 24.1012 42.158 24.549 45.3436C24.9968 48.5292 24.568 51.7766 23.3086 54.7368C22.795 55.8053 22.3397 56.9008 21.9449 58.0186C20.7959 60.8924 18.8836 63.3977 16.4144 65.2638C13.9453 67.1299 11.0132 68.2859 7.93486 68.6068L5.20726 68.9783C3.77252 69.1581 2.45245 69.8545 1.49401 70.9372C0.535579 72.0199 0.00445149 73.4147 0 74.8607L0 85.0774C0.00445208 86.5234 0.535573 87.9182 1.494 89.0008C2.45242 90.0835 3.77248 90.7799 5.20721 90.9598L7.93481 91.3313C11.0131 91.6522 13.9452 92.8082 16.4144 94.6743C18.8836 96.5404 20.7959 99.0457 21.9448 101.92C22.3787 103.096 22.8127 104.211 23.3086 105.263C24.568 108.223 24.9968 111.471 24.549 114.656C24.1012 117.842 22.7937 120.845 20.767 123.344L19.4032 125.139C18.5277 126.28 18.0954 127.699 18.1866 129.133C18.2778 130.568 18.8863 131.921 19.8992 132.941L27.09 140.124C27.6389 140.672 28.2905 141.106 29.0074 141.401C29.7244 141.697 30.4926 141.848 31.268 141.846C32.5807 141.846 33.8572 141.415 34.901 140.619L36.6987 139.257C39.9214 136.713 43.8998 135.315 48.0054 135.285C50.3459 135.279 52.6612 135.768 54.8001 136.718C55.8539 137.214 56.9078 137.647 58.0856 138.081C60.9551 139.233 63.4573 141.144 65.3245 143.609C67.1917 146.074 68.3536 149 68.686 152.074L68.9959 154.799C69.1777 156.233 69.8758 157.553 70.9597 158.51C72.0436 159.467 73.439 159.997 74.8851 160H85.1136C86.5412 160.001 87.9216 159.489 89.0028 158.557C90.084 157.625 90.7939 156.335 91.0027 154.923L91.3127 152.198C91.636 149.121 92.7945 146.191 94.6629 143.724C96.5313 141.258 99.0384 139.349 101.913 138.204C103.091 137.771 104.145 137.276 105.199 136.842C107.311 135.919 109.593 135.447 111.898 135.455C116.036 135.483 120.047 136.886 123.3 139.443L125.098 140.805C126.141 141.601 127.418 142.032 128.731 142.031C129.506 142.033 130.274 141.882 130.991 141.587C131.708 141.291 132.36 140.857 132.909 140.31L140.162 133.127C141.174 132.107 141.783 130.754 141.874 129.319C141.965 127.884 141.533 126.465 140.658 125.325L139.294 123.529C137.267 121.031 135.96 118.028 135.512 114.842C135.064 111.657 135.493 108.409 136.752 105.449C137.248 104.396 137.682 103.282 138.116 102.167C139.273 99.2987 141.187 96.7983 143.655 94.9333C146.122 93.0684 149.05 91.909 152.126 91.579L154.853 91.2075C156.277 91.0141 157.582 90.3118 158.528 89.2305C159.474 88.1491 159.997 86.7618 159.999 85.3251V75.1084C160.019 73.6655 159.505 72.2661 158.555 71.18C157.605 70.0938 156.286 69.3978 154.853 69.226L152.126 68.8545C149.048 68.5335 146.115 67.3776 143.646 65.5115C141.177 63.6454 139.265 61.1401 138.116 58.2663C137.682 57.1517 137.248 56.0372 136.752 54.9226C135.493 51.9624 135.064 48.715 135.512 45.5293C135.96 42.3437 137.267 39.3404 139.294 36.8421L140.658 35.0464C141.533 33.9062 141.965 32.4871 141.874 31.0524C141.783 29.6177 141.174 28.2648 140.162 27.2446L133.033 19.8762C132.484 19.3284 131.832 18.8943 131.115 18.5989C130.398 18.3035 129.63 18.1524 128.855 18.1545C127.542 18.1538 126.265 18.5847 125.222 19.3808L123.424 20.743C120.201 23.2868 116.223 24.6845 112.117 24.7154C109.777 24.7207 107.462 24.2322 105.323 23.2817C104.269 22.7863 103.215 22.3529 102.037 21.9195C99.1609 20.7773 96.6523 18.8692 94.7836 16.4023C92.9148 13.9354 91.7574 11.0038 91.4367 7.92568L91.0648 5.20123C90.883 3.7666 90.1849 2.4473 89.101 1.49003C88.0172 0.532753 86.6217 0.00305994 85.1756 0V0ZM79.9684 112.446C73.5773 112.438 67.3318 110.537 62.0214 106.98C56.711 103.424 52.574 98.3738 50.1334 92.4671C47.6927 86.5604 47.058 80.0627 48.3093 73.7953C49.5607 67.5279 52.642 61.7721 57.1638 57.2556C61.6856 52.739 67.4449 49.6643 73.7137 48.4202C79.9825 47.1761 86.4795 47.8183 92.3834 50.2658C98.2873 52.7132 103.333 56.8561 106.883 62.1706C110.433 67.4851 112.328 73.7327 112.328 80.1238C112.317 88.6992 108.903 96.9196 102.835 102.98C96.7681 109.04 88.5438 112.445 79.9684 112.446V112.446Z" fill="#576C82"/>
</svg>
