<svg width="120" height="120" viewBox="0 0 120 120" fill="none" xmlns="http://www.w3.org/2000/svg">
<path d="M63.8816 1C64.7245 1.0021 65.5376 1.31172 66.1684 1.87074C66.7992 2.42977 67.2043 3.19977 67.3076 4.03626L67.5854 6.06845C67.8486 8.55904 68.7891 10.9299 70.3047 12.9237C71.8203 14.9175 73.8532 16.4581 76.1825 17.3781C77.0679 17.704 77.8255 18.018 78.5844 18.3745C80.3162 19.1464 82.192 19.5425 84.088 19.5366C87.3846 19.5094 90.5792 18.3903 93.172 16.3543L94.5225 15.3309C95.1303 14.8651 95.8752 14.6137 96.6409 14.6159C97.0885 14.6133 97.5323 14.6991 97.9467 14.8684C98.3611 15.0377 98.738 15.2872 99.0557 15.6025L104.415 21.141C105.002 21.736 105.354 22.5233 105.406 23.3576C105.458 24.1919 105.206 25.0168 104.697 25.68L103.682 27.0166C102.049 29.0326 100.997 31.4558 100.639 34.0252C100.281 36.5946 100.631 39.213 101.65 41.5985C102.014 42.4148 102.34 43.2524 102.652 44.0556C103.578 46.3788 105.12 48.4052 107.113 49.9165C109.105 51.4277 111.473 52.3665 113.959 52.6317L116.016 52.9118C116.85 53.0088 117.617 53.4129 118.168 54.0451C118.72 54.6774 119.016 55.4924 118.999 56.3313V63.9938C119.001 64.8304 118.698 65.639 118.147 66.2685C117.596 66.898 116.834 67.3055 116.005 67.4147L113.971 67.6919C111.483 67.9571 109.116 68.8952 107.122 70.4054C105.128 71.9156 103.584 73.9406 102.655 76.2629C102.341 77.0689 102.017 77.9023 101.651 78.6784C100.632 81.0619 100.281 83.6784 100.638 86.2462C100.994 88.8141 102.044 91.2362 103.674 93.2519L104.699 94.6009C105.207 95.2634 105.458 96.0871 105.406 96.9203C105.355 97.7535 105.004 98.54 104.418 99.1346L98.9748 104.525C98.6564 104.843 98.2779 105.095 97.8614 105.267C97.4449 105.438 96.9985 105.526 96.5481 105.523C95.7814 105.525 95.0356 105.273 94.4273 104.807L93.0892 103.793C90.4724 101.741 87.2489 100.615 83.9236 100.591C82.0639 100.582 80.2229 100.962 78.5186 101.707C78.2374 101.822 77.956 101.944 77.6707 102.067C77.1634 102.286 76.6387 102.513 76.0797 102.718C73.7527 103.643 71.7227 105.186 70.209 107.181C68.6953 109.175 67.7554 111.546 67.491 114.036L67.2604 116.063C67.133 116.88 66.7179 117.625 66.09 118.163C65.4621 118.702 64.6625 118.999 63.8353 119H56.1639C55.3245 118.999 54.5142 118.693 53.8843 118.138C53.2543 117.583 52.8478 116.818 52.7405 115.986L52.5066 113.932C52.2387 111.443 51.2964 109.074 49.7814 107.081C48.2664 105.088 46.2361 103.546 43.9095 102.622C43.0239 102.296 42.2663 101.982 41.5076 101.626C39.7758 100.854 37.9 100.458 36.004 100.463C32.7074 100.491 29.5128 101.61 26.92 103.646L25.5695 104.669C24.9617 105.135 24.2168 105.386 23.4511 105.384C23.0007 105.386 22.5543 105.299 22.1377 105.128C21.7211 104.956 21.3427 104.704 21.0242 104.385L15.631 98.9984C15.0438 98.4034 14.6918 97.616 14.6399 96.7817C14.588 95.9473 14.8398 95.1224 15.3488 94.4593L16.3638 93.1227C17.998 91.1035 19.05 88.6764 19.4064 86.1033C19.7628 83.5302 19.41 80.9086 18.3861 78.5211C18.0054 77.713 17.6723 76.8405 17.3931 76.0837C16.4673 73.7605 14.9251 71.7341 12.9326 70.2229C10.94 68.7116 8.57285 67.7728 6.08614 67.5076L4.02938 67.2275C3.19489 67.1236 2.4269 66.719 1.86926 66.0896C1.31161 65.4602 1.00257 64.649 1 63.8081V56.1455C1.00317 55.3028 1.31383 54.4903 1.87365 53.8604C2.43348 53.2305 3.20397 52.8266 4.04047 52.7246L6.07379 52.4475C8.5643 52.1832 10.9353 51.2436 12.9308 49.7302C14.9263 48.2167 16.4706 46.187 17.3968 43.8601C17.686 43.043 18.019 42.2422 18.3944 41.461C19.414 39.0774 19.7644 36.461 19.408 33.8931C19.0516 31.3253 18.0019 28.9032 16.3716 26.8874L15.347 25.5383C14.8388 24.8752 14.5876 24.0507 14.6398 23.2168C14.692 22.383 15.0441 21.5962 15.6311 21.0016L21.0243 15.6146C21.3427 15.2961 21.7212 15.0438 22.1377 14.8724C22.5543 14.7009 23.0007 14.6138 23.4511 14.6159C24.2178 14.6138 24.9635 14.8659 25.5717 15.3327L26.9099 16.3465C29.5086 18.388 32.711 19.51 36.0156 19.5366C37.9129 19.5423 39.7904 19.1504 41.5269 18.3862C41.8083 18.2705 42.0896 18.149 42.3749 18.0258C42.8823 17.8067 43.4069 17.5802 43.9659 17.3744C46.2928 16.4498 48.3228 14.9068 49.8365 12.9122C51.3502 10.9176 52.2901 8.54727 52.5545 6.05734L52.7857 4.02511C52.891 3.19065 53.2968 2.42317 53.9271 1.86635C54.5575 1.30952 55.3692 1.00152 56.2103 1H63.8816ZM59.9763 85.3344C64.9674 85.3289 69.8448 83.8438 73.9921 81.0668C78.1393 78.2899 81.3703 74.3458 83.2765 69.733C85.1826 65.1203 85.6785 60.0459 84.7014 55.1514C83.7243 50.2569 81.3181 45.7619 77.7869 42.2346C74.2557 38.7073 69.7581 36.306 64.8625 35.3344C59.9668 34.3627 54.8931 34.8642 50.2824 36.7755C45.6717 38.6867 41.7312 41.922 38.9589 46.0724C36.1865 50.2227 34.7068 55.1018 34.7068 60.0929C34.7181 66.7887 37.385 73.2067 42.1222 77.9387C46.8595 82.6708 53.2804 85.3305 59.9763 85.3344V85.3344ZM63.8816 0H56.2103C55.1257 0.00232065 54.0791 0.399605 53.2663 1.11756C52.4534 1.83552 51.9298 2.82499 51.7935 3.90094L51.561 5.94427C51.3185 8.25223 50.4496 10.45 49.0484 12.2998C47.6471 14.1497 45.7668 15.5812 43.6107 16.4396C42.7273 16.7647 41.937 17.1362 41.1466 17.4613C39.5299 18.1734 37.7821 18.5396 36.0156 18.5366C32.9325 18.5153 29.9445 17.467 27.524 15.5573L26.1757 14.5356C25.393 13.9385 24.4356 13.6154 23.4511 13.6159C22.8695 13.6144 22.2934 13.7276 21.7557 13.9492C21.2179 14.1708 20.7292 14.4963 20.3176 14.9071L14.9244 20.2941C14.1647 21.0593 13.7084 22.074 13.64 23.15C13.5716 24.226 13.8958 25.2903 14.5524 26.1455L15.5753 27.4923C17.0952 29.366 18.0759 31.6185 18.4117 34.0077C18.7476 36.3969 18.426 38.8325 17.4815 41.0527C17.0963 41.854 16.7548 42.6756 16.4585 43.514C15.5969 45.6693 14.1626 47.5483 12.3108 48.9479C10.4589 50.3474 8.25984 51.2144 5.95111 51.4551L3.90546 51.7338C2.8294 51.8686 1.83934 52.3909 1.12051 53.2029C0.40168 54.015 0.00333406 55.0611 0 56.1455L0 63.8081C0.0033392 64.8925 0.401687 65.9386 1.12052 66.7506C1.83935 67.5627 2.8294 68.085 3.90546 68.2198L5.95111 68.4985C8.25984 68.7392 10.4589 69.6061 12.3108 71.0057C14.1627 72.4053 15.5969 74.2842 16.4586 76.4396C16.7841 77.322 17.1096 78.1579 17.4816 78.9474C18.426 81.1675 18.7476 83.6031 18.4118 85.9923C18.0759 88.3815 17.0953 90.634 15.5753 92.5078L14.5525 93.8545C13.8958 94.7097 13.5716 95.774 13.64 96.85C13.7084 97.9261 14.1648 98.9408 14.9245 99.7059L20.3177 105.093C20.7293 105.504 21.218 105.829 21.7557 106.051C22.2935 106.272 22.8696 106.386 23.4512 106.384C24.4357 106.385 25.393 106.061 26.1758 105.464L27.5241 104.443C29.9411 102.535 32.9249 101.487 36.0041 101.463C37.7594 101.459 39.4959 101.826 41.1 102.539C41.8904 102.91 42.6808 103.235 43.5641 103.56C45.7163 104.425 47.5929 105.858 48.9933 107.707C50.3937 109.555 51.2652 111.75 51.5144 114.056L51.747 116.099C51.8833 117.175 52.4068 118.165 53.2198 118.882C54.0327 119.6 55.0793 119.998 56.1639 120H63.8353C64.9059 120.001 65.9412 119.617 66.7521 118.918C67.563 118.219 68.0954 117.251 68.252 116.192L68.4846 114.149C68.727 111.841 69.5959 109.643 70.9972 107.793C72.3985 105.943 74.2788 104.512 76.4349 103.653C77.3183 103.328 78.1086 102.957 78.899 102.632C80.4834 101.94 82.1946 101.585 83.9235 101.591C87.0269 101.612 90.0352 102.664 92.475 104.582L93.8233 105.604C94.6061 106.201 95.5635 106.524 96.548 106.523C97.1296 106.525 97.7057 106.412 98.2434 106.19C98.7811 105.969 99.2698 105.643 99.6815 105.232L105.121 99.8452C105.881 99.0801 106.337 98.0654 106.406 96.9894C106.474 95.9133 106.15 94.849 105.493 93.9939L104.47 92.6471C102.95 90.7734 101.97 88.5209 101.634 86.1316C101.298 83.7424 101.62 81.3069 102.564 79.0867C102.936 78.2972 103.262 77.4613 103.587 76.6254C104.455 74.4739 105.89 72.5987 107.741 71.2C109.592 69.8013 111.788 68.9317 114.094 68.6842L116.14 68.4056C117.208 68.2606 118.187 67.7339 118.896 66.9228C119.606 66.1118 119.997 65.0713 119.999 63.9938V56.3313C120.014 55.2491 119.629 54.1996 118.916 53.385C118.203 52.5704 117.215 52.0483 116.14 51.9195L114.094 51.6409C111.786 51.4002 109.587 50.5332 107.735 49.1336C105.883 47.7341 104.449 45.8551 103.587 43.6997C103.262 42.8638 102.936 42.0279 102.564 41.192C101.62 38.9718 101.298 36.5362 101.634 34.147C101.97 31.7578 102.95 29.5053 104.47 27.6316L105.493 26.2848C106.15 25.4296 106.474 24.3653 106.406 23.2893C106.337 22.2133 105.881 21.1986 105.121 20.4334L99.7745 14.9071C99.3628 14.4963 98.8742 14.1708 98.3364 13.9492C97.7987 13.7276 97.2225 13.6143 96.641 13.6159C95.6565 13.6154 94.6991 13.9386 93.9164 14.5356L92.5681 15.5573C90.151 17.4651 87.1673 18.5134 84.0881 18.5366C82.3327 18.5406 80.5962 18.1742 78.992 17.4613C78.2016 17.0898 77.4112 16.7647 76.5279 16.4396C74.3707 15.583 72.4892 14.1519 71.0877 12.3017C69.6862 10.4515 68.8181 8.25287 68.5776 5.94427L68.2986 3.90093C68.1623 2.82495 67.6387 1.83546 66.8258 1.11751C66.0128 0.399548 64.9662 0.00228305 63.8816 0V0ZM59.9763 84.3344C55.1829 84.3288 50.4989 82.9024 46.516 80.2353C42.5332 77.5683 39.4305 73.7803 37.6 69.3503C35.7695 64.9202 35.2935 60.047 36.232 55.3464C37.1705 50.6459 39.4815 46.3291 42.8729 42.9417C46.2642 39.5542 50.5837 37.2482 55.2853 36.3151C59.9869 35.382 64.8597 35.8637 69.2876 37.6993C73.7155 39.535 77.4999 42.6421 80.1623 46.6279C82.8248 50.6138 84.2458 55.2996 84.2458 60.0929C84.2375 66.5244 81.6769 72.6898 77.1265 77.2349C72.5761 81.7801 66.4078 84.3335 59.9763 84.3344Z" fill="#576C82"/>
</svg>
