<svg width="140" height="140" viewBox="0 0 140 140" fill="none" xmlns="http://www.w3.org/2000/svg">
<g clip-path="url(#clip0)">
<path d="M74.5286 1C75.5522 1.0024 76.5398 1.37818 77.3061 2.05687C78.0724 2.73555 78.5647 3.6705 78.6908 4.68634L79.0148 7.05918C79.3182 9.93452 80.4034 12.6718 82.1526 14.974C83.9019 17.2761 86.2482 19.0552 88.9371 20.118C89.9748 20.4999 90.8629 20.868 91.7498 21.2847C93.7488 22.1757 95.9141 22.6329 98.1028 22.626C101.912 22.5942 105.604 21.3005 108.6 18.9472L110.175 17.7535C110.913 17.1878 111.818 16.8825 112.748 16.8852C113.292 16.8822 113.832 16.9868 114.336 17.193C114.84 17.3992 115.299 17.703 115.685 18.087L121.935 24.5465C122.648 25.2692 123.076 26.2256 123.139 27.2392C123.203 28.2528 122.897 29.255 122.279 30.0608L121.093 31.6218C119.207 33.95 117.992 36.7486 117.578 39.7162C117.164 42.6839 117.567 45.7082 118.744 48.4637C119.17 49.4202 119.551 50.3991 119.917 51.3389C120.986 54.0211 122.768 56.3606 125.069 58.1051C127.37 59.8496 130.104 60.933 132.975 61.2385L135.373 61.565C136.385 61.683 137.318 62.1739 137.988 62.942C138.659 63.7102 139.019 64.7004 138.999 65.7198V74.6594C139.001 75.6757 138.633 76.658 137.963 77.4228C137.294 78.1876 136.369 78.6827 135.362 78.8156L132.986 79.1393C130.115 79.445 127.381 80.5278 125.078 82.2711C122.776 84.0144 120.992 86.3524 119.919 89.0335C119.552 89.9763 119.173 90.9513 118.745 91.8594C117.568 94.6129 117.164 97.6353 117.576 100.601C117.989 103.568 119.202 106.365 121.086 108.693L122.281 110.267C122.898 111.072 123.203 112.073 123.14 113.085C123.077 114.098 122.65 115.053 121.938 115.776L115.588 122.063C115.201 122.45 114.742 122.757 114.235 122.965C113.729 123.174 113.187 123.28 112.639 123.277C111.708 123.28 110.803 122.974 110.064 122.407L108.502 121.223C105.478 118.852 101.753 117.551 97.9106 117.523C95.7628 117.513 93.6366 117.952 91.6684 118.812C91.3413 118.947 91.0141 119.088 90.6822 119.231C90.0881 119.488 89.4737 119.753 88.8187 119.994C86.1325 121.062 83.7893 122.844 82.042 125.146C80.2948 127.449 79.2101 130.186 78.905 133.06L78.6357 135.428C78.4813 136.421 77.9772 137.327 77.2143 137.982C76.4514 138.637 75.4798 138.998 74.4744 139H65.5244C64.5043 138.999 63.5195 138.626 62.7541 137.952C61.9886 137.278 61.4948 136.348 61.3649 135.336L61.0925 132.941C60.7835 130.067 59.6962 127.333 57.9477 125.031C56.1992 122.73 53.8558 120.95 51.1701 119.882C50.1324 119.5 49.2443 119.132 48.3575 118.715C46.3584 117.824 44.1932 117.367 42.0046 117.374C38.195 117.406 34.5033 118.699 31.5074 121.053L29.932 122.247C29.1939 122.812 28.2893 123.117 27.3595 123.115C26.8121 123.117 26.2696 123.011 25.7634 122.803C25.2572 122.595 24.7973 122.288 24.4104 121.901L18.1183 115.616C17.4048 114.893 16.9769 113.937 16.9136 112.923C16.8504 111.91 17.156 110.908 17.7741 110.102L18.9596 108.541C20.8473 106.209 22.0628 103.407 22.4752 100.435C22.8876 97.464 22.4811 94.4364 21.2997 91.679C20.8521 90.7289 20.4622 89.7074 20.1362 88.8236C19.0666 86.1414 17.2853 83.8019 14.9841 82.0574C12.683 80.3128 9.94934 79.2295 7.07788 78.924L4.68018 78.5975C3.66633 78.4712 2.73332 77.9796 2.05588 77.2148C1.37845 76.4499 1.00305 75.4644 1 74.4427V65.5031C1.00365 64.4797 1.38066 63.4927 2.06028 62.7275C2.7399 61.9623 3.67542 61.4714 4.69128 61.3469L7.06555 61.0234C9.94083 60.7188 12.6783 59.6346 14.9824 57.8879C17.2866 56.1412 19.0699 53.7984 20.1399 51.1123C20.4785 50.1555 20.8684 49.2178 21.3079 48.3031C22.4852 45.5495 22.8894 42.5271 22.477 39.561C22.0646 36.5949 20.8512 33.7974 18.9675 31.4695L17.7723 29.896C17.155 29.0902 16.8499 28.0883 16.9135 27.0752C16.9771 26.0621 17.405 25.1062 18.1183 24.384L24.4104 18.0992C24.7974 17.712 25.2573 17.4054 25.7635 17.197C26.2696 16.9887 26.8121 16.8827 27.3595 16.8852C28.2903 16.8827 29.1958 17.1886 29.9343 17.7553L31.4972 18.9393C34.4996 21.2984 38.1998 22.595 42.0181 22.626C44.2098 22.6325 46.3786 22.1796 48.3845 21.2964C48.7118 21.1618 49.0392 21.0205 49.3712 20.8771C49.9652 20.6206 50.5795 20.3554 51.2342 20.1144C53.9204 19.0465 56.2637 17.2648 58.011 14.962C59.7582 12.6591 60.8429 9.92255 61.1479 7.048L61.4179 4.67523C61.5458 3.6614 62.0389 2.72895 62.8047 2.05245C63.5706 1.37594 64.5567 1.00178 65.5786 1H74.5286H74.5286ZM69.9723 99.3901C75.7623 99.3836 81.4204 97.6608 86.2314 94.4393C91.0425 91.2179 94.7905 86.6425 97.0018 81.2913C99.213 75.9402 99.7883 70.0537 98.6547 64.3757C97.5212 58.6978 94.7298 53.4833 90.6334 49.3915C86.5369 45.2996 81.3194 42.514 75.6402 41.3868C69.9609 40.2597 64.075 40.8414 58.7264 43.0587C53.3778 45.2759 48.8065 49.029 45.5904 53.8437C42.3744 58.6583 40.6578 64.3184 40.6578 70.1084C40.671 77.876 43.7647 85.3213 49.2603 90.8108C54.7559 96.3002 62.2046 99.3857 69.9723 99.3901ZM74.5286 0H65.5786C64.3132 0.00266976 63.0922 0.46615 62.1438 1.30377C61.1954 2.14139 60.5846 3.29579 60.4256 4.55109L60.1544 6.935C59.8715 9.62763 58.8578 12.1917 57.223 14.3498C55.5882 16.508 53.3944 18.1781 50.879 19.1796C49.8484 19.5588 48.9263 19.9923 48.0042 20.3716C46.118 21.2023 44.079 21.6296 42.0181 21.626C38.4212 21.6012 34.9352 20.3782 32.1113 18.1502L30.5382 16.9583C29.625 16.2617 28.5081 15.8846 27.3595 15.8853C26.681 15.8835 26.0088 16.0156 25.3815 16.2741C24.7542 16.5327 24.184 16.9124 23.7037 17.3917L17.4116 23.6765C16.5254 24.5692 15.993 25.753 15.9132 27.0084C15.8334 28.2637 16.2116 29.5054 16.9776 30.5032L18.171 32.0744C19.9443 34.2603 21.0884 36.8883 21.4803 39.6757C21.8721 42.4631 21.4969 45.3046 20.395 47.8948C19.9455 48.8297 19.5471 49.7882 19.2016 50.7663C18.1963 53.2809 16.523 55.4731 14.3625 57.1059C12.202 58.7387 9.63639 59.7502 6.94287 60.031L4.55627 60.3561C3.30088 60.5134 2.14583 61.1228 1.30722 62.0701C0.468604 63.0175 0.00388202 64.2379 0 65.5031V74.4427C0.00388115 75.7079 0.468602 76.9284 1.30722 77.8757C2.14583 78.8231 3.30088 79.4325 4.55627 79.5898L6.94287 79.9149C9.63641 80.1957 12.202 81.2072 14.3625 82.84C16.5231 84.4728 18.1964 86.665 19.2017 89.1796C19.5813 90.209 19.9611 91.1842 20.395 92.1053C21.4969 94.6955 21.8721 97.537 21.4803 100.324C21.0884 103.112 19.9444 105.74 18.171 107.926L16.9777 109.497C16.2116 110.495 15.8334 111.736 15.9132 112.992C15.993 114.247 16.5254 115.431 17.4117 116.324L23.7038 122.608C24.184 123.088 24.7542 123.467 25.3815 123.726C26.0088 123.984 26.681 124.117 27.3595 124.115C28.5081 124.115 29.625 123.738 30.5382 123.042L32.1114 121.85C34.9312 119.624 38.4122 118.401 42.0046 118.374C44.0525 118.369 46.0784 118.797 47.9499 119.628C48.8721 120.062 49.7942 120.441 50.8248 120.82C53.3356 121.829 55.5251 123.501 57.1589 125.658C58.7927 127.815 59.8094 130.375 60.1002 133.065L60.3714 135.449C60.5305 136.704 61.1413 137.859 62.0897 138.696C63.0381 139.534 64.2591 139.997 65.5244 140H74.4744C75.7235 140.001 76.9314 139.553 77.8775 138.737C78.8235 137.922 79.4447 136.793 79.6274 135.557L79.8987 133.173C80.1816 130.481 81.1953 127.917 82.8301 125.759C84.4649 123.6 86.6586 121.93 89.174 120.929C90.2047 120.55 91.1268 120.116 92.0489 119.737C93.8973 118.93 95.8937 118.516 97.9107 118.523C101.531 118.547 105.041 119.775 107.888 122.012L109.461 123.204C110.374 123.901 111.491 124.278 112.639 124.277C113.318 124.279 113.99 124.147 114.617 123.888C115.245 123.63 115.815 123.25 116.295 122.771L122.641 116.486C123.528 115.593 124.06 114.41 124.14 113.154C124.22 111.899 123.842 110.657 123.075 109.659L121.882 108.088C120.109 105.902 118.965 103.274 118.573 100.487C118.181 97.6995 118.556 94.858 119.658 92.2678C120.092 91.3468 120.472 90.3715 120.851 89.3963C121.864 86.8863 123.539 84.6984 125.698 83.0666C127.857 81.4348 130.419 80.4203 133.11 80.1316L135.497 79.8065C136.742 79.6373 137.885 79.0228 138.712 78.0766C139.54 77.1304 139.997 75.9165 139.999 74.6594V65.7198C140.017 64.4573 139.567 63.2328 138.735 62.2825C137.904 61.3321 136.75 60.7231 135.497 60.5728L133.11 60.2477C130.417 59.9668 127.851 58.9554 125.691 57.3225C123.53 55.6897 121.857 53.4976 120.851 50.983C120.472 50.0078 120.092 49.0325 119.658 48.0573C118.556 45.4671 118.181 42.6256 118.573 39.8382C118.965 37.0508 120.109 34.4228 121.882 32.2368L123.075 30.6656C123.841 29.6679 124.22 28.4262 124.14 27.1709C124.06 25.9155 123.528 24.7317 122.641 23.839L116.403 17.3917C115.923 16.9124 115.353 16.5326 114.726 16.274C114.098 16.0155 113.426 15.8834 112.748 15.8852C111.599 15.8846 110.482 16.2616 109.569 16.9582L107.996 18.1501C105.176 20.376 101.695 21.599 98.1028 21.626C96.0548 21.6307 94.0289 21.2032 92.1573 20.3715C91.2352 19.9381 90.3131 19.5589 89.2825 19.1795C86.7657 18.1801 84.5707 16.5106 82.9355 14.352C81.3004 12.1935 80.2876 9.62837 80.0071 6.935L79.6816 4.55108C79.5226 3.29578 78.9118 2.14138 77.9633 1.30377C77.0149 0.466155 75.7939 0.00267567 74.5286 0V0ZM69.9723 98.3901C64.3801 98.3837 58.9153 96.7195 54.2687 93.6079C49.622 90.4964 46.0022 86.0771 43.8666 80.9087C41.731 75.7404 41.1756 70.0549 42.2705 64.5709C43.3654 59.0869 46.0616 54.0506 50.0182 50.0986C53.9747 46.1466 59.0141 43.4563 64.4993 42.3676C69.9846 41.279 75.6694 41.841 80.8353 43.9825C86.0013 46.1241 90.4163 49.749 93.5225 54.3992C96.6287 59.0494 98.2866 64.5161 98.2866 70.1084C98.2769 77.6118 95.2896 84.8047 89.9808 90.1073C84.672 95.41 77.4757 98.389 69.9723 98.3901V98.3901Z" fill="#576C82"/>
</g>
<defs>
<clipPath id="clip0">
<rect width="140" height="140" fill="white"/>
</clipPath>
</defs>
</svg>
