<svg width="195" height="80" viewBox="0 0 195 80" fill="none" xmlns="http://www.w3.org/2000/svg">
<g clip-path="url(#clip0)">
<path d="M96.592 77.5426C98.3374 74.4492 98.968 71.1287 99.0185 67.7981C99.5028 67.0613 100.118 66.486 100.325 65.7543C101.445 61.8181 101.001 53.315 101.001 53.315C101.001 53.315 100.133 51.1148 98.5443 50.7262C98.7965 51.0441 98.8318 52.2754 98.5947 52.2149C95.8302 52.2149 93.101 52.2149 90.3213 52.2149C90.3213 51.5488 90.3314 50.9331 90.3163 50.3124C90.3011 49.7068 90.3919 49.0912 90.2608 48.5613C89.4536 48.5613 88.7474 48.5613 87.9906 48.5613C87.9906 51.251 87.9906 53.8802 87.9906 56.5901C87.471 56.5901 87.0019 56.5901 86.5277 56.5901C79.6466 56.5901 61.4401 56.4589 60.9154 56.6355C60.9154 47.3502 60.9154 38.1759 60.9154 28.9713C61.0567 28.83 61.2282 28.6585 61.4502 28.4364C61.4502 26.3775 61.5713 21.972 61.6066 21.9367C62.4894 21.9518 72.9573 22.9964 74.5514 23.0974C74.5918 23.0974 75.0458 28.4516 75.0761 28.4869C75.1013 28.5222 75.1467 28.5474 75.177 28.5777C75.3737 28.5777 75.5654 28.5777 75.7521 28.5777C75.8933 28.4364 76.0295 28.3002 76.2162 28.1135C76.2162 26.4936 76.2162 24.8232 76.2162 23.168C76.9174 23.168 77.5581 23.168 78.2543 23.168C78.2543 25.0099 78.2543 26.7762 78.2543 28.5828C79.1674 28.5828 80.8876 28.5777 80.8876 28.5777L81.1197 28.3759L79.6718 28.0125L81.044 27.7653L79.7021 27.3111C79.7021 27.3111 79.7223 27.2202 79.7324 27.1748C80.1864 27.1446 80.9431 27.084 80.9431 27.084L79.6517 26.4986L81.0793 26.0545C80.5093 25.888 79.6517 25.4793 79.6517 25.4793C79.6517 25.4793 80.2823 25.3935 81.0793 25.348C80.3781 25.0856 80.1309 24.909 79.6567 24.7324C79.6618 24.6718 80.4235 24.5457 80.7968 24.5457C80.7867 24.5558 80.8019 24.5406 80.8019 24.5406C80.8019 24.5406 79.6315 23.9855 79.6214 23.9956C79.5407 23.93 80.59 23.9653 81.0541 23.9653L79.3591 23.3497C79.3591 23.3497 79.3591 23.2286 79.354 23.168C79.7072 23.1276 80.0653 23.0873 80.4689 23.0469C80.59 22.845 80.7211 22.618 80.9482 22.2344C80.2167 22.2344 73.5021 21.5582 72.6748 21.205C72.6748 15.2301 72.6748 9.22996 72.6748 3.10368C72.3317 3.01284 71.9988 2.92201 71.908 2.90182C71.4539 3.22984 71.1815 3.4216 70.9293 3.60327C70.9293 8.29638 70.9293 12.9088 70.9192 17.5211L71.459 19.6305L55.8858 19.7012L68.0639 18.1873C68.0639 18.1873 54.4581 16.7995 55.0383 16.7591C56.1078 16.6834 67.6704 15.3562 67.6704 15.3562C67.6704 15.3562 51.2396 14.1754 50.5686 14.0442C50.9621 13.8575 67.1003 11.7885 67.1003 11.7885L48.5558 10.9054C48.5558 10.9054 66.0762 9.29052 65.9753 9.18959C64.3055 8.95241 47.8697 7.45869 45.7408 7.49906C45.5037 7.50411 45.2616 7.44355 45.0194 7.41327C46.8456 7.02975 53.5804 6.9591 55.114 6.91368C56.6173 6.87331 64.1289 6.5453 65.264 6.17187C64.1945 6.03057 46.3512 4.42078 45.6197 4.3249C44.8882 4.22902 44.1618 4.13314 43.4303 4.03725C43.1882 4.00698 42.946 3.98174 42.6988 3.95147C42.6988 3.88082 42.6988 3.81521 42.6988 3.74457C42.9763 3.74457 43.2537 3.74457 43.5312 3.74457C45.2162 3.74457 46.8961 3.72438 48.581 3.74961C50.2458 3.78494 63.4883 4.03725 63.4883 4.03725L63.8414 3.88586L47.6376 2.88164C47.6376 2.88164 44.4847 2.92705 43.3345 2.87659C41.3166 2.7908 38.0223 2.52335 38.0223 2.52335C38.0223 1.67051 38.0223 0.827767 38.0223 -0.00488281C37.7297 -0.00488281 37.538 -0.00488281 37.3463 -0.00488281C37.2101 0.131369 37.0739 0.267621 36.8873 0.454336C36.8873 7.55962 36.8873 14.7154 36.8873 21.8509C36.6754 22.0477 36.4988 22.2143 36.3374 22.3656C36.3374 33.0185 36.3374 43.6512 36.3374 54.2839C36.4282 54.3848 36.524 54.4807 36.6249 54.5715C36.9882 54.8592 37.3463 55.1468 37.7348 55.4597C38.2191 55.4345 38.7236 55.4092 39.1675 55.389C39.1675 54.9601 39.1675 54.6422 39.1675 54.3243C38.6428 54.2889 38.1333 54.3142 38.0627 53.6127C38.3351 53.4311 38.6327 53.2393 38.9506 53.0274C38.9506 47.4965 38.9506 36.5207 38.9506 36.5207C38.9506 36.5207 43.9903 34.8857 44.4191 34.9412H44.4241C44.4191 34.8655 44.4241 34.9513 44.4241 34.9412H44.4191C44.4191 34.9412 41.2863 36.3794 40.6658 36.9648C40.9079 36.9648 51.9509 33.6039 51.9509 33.6039C51.9509 33.6039 52.5008 33.4676 52.8035 33.6342C52.7076 33.725 52.637 33.7906 52.637 33.7906L40.3934 39.9976C40.3934 39.9976 45.3625 38.4989 46.0586 38.3021C47.8949 37.7873 53.0507 35.7183 53.9486 35.8041L53.9537 35.8293L53.9486 35.8041C53.873 35.9 48.1572 38.8975 45.3019 40.1541C43.4303 40.9766 40.0554 42.7025 40.0554 42.7025C40.0554 42.7025 46.8759 40.9565 48.5003 40.4619C50.0389 39.9976 53.6762 39.0136 53.9486 38.9783H53.9537C53.9486 38.9026 54.1454 38.9682 53.9537 39.0035C53.9537 38.9934 53.9537 38.9833 53.9537 38.9783C53.9537 38.9783 53.9537 38.9783 53.9486 38.9783C53.873 39.0742 39.8637 45.9069 39.8637 45.9069L48.2531 44.1306L53.9486 42.8539L51.401 44.0347L40.015 49.4848C40.015 49.4848 52.1981 46.7043 53.0809 46.7749C52.3948 47.4309 39.5156 52.4571 39.5156 52.4571L42.6786 51.9979L42.0934 53.5471L41.4326 55.3739L39.2028 55.9038L41.5486 55.8987L29.1082 58.649C29.1082 58.649 29.1082 56.8071 29.1082 55.9946C28.2405 56.1208 1.59919 62.4792 1.11994 62.671C1.11994 64.7046 1.11994 66.6223 1.13003 68.5449C1.13003 68.6055 1.2511 68.666 1.33182 68.7468C1.44785 68.7064 1.57396 68.4793 1.70008 68.4339C1.70008 67.0562 1.6799 65.9006 1.71522 64.5532C1.72531 64.1596 1.88674 63.766 1.99268 63.3724C2.09357 63.0091 2.39121 62.3732 2.80993 62.4792C3.22864 62.5852 3.60196 63.7055 3.60196 64.6794C3.80879 63.9224 3.9904 62.8526 4.17706 62.454C4.35867 62.0654 5.19105 62.3379 5.19105 62.3379C5.19105 62.3379 5.76616 63.3068 5.76616 63.9729C6.37153 67.7728 5.14565 70.3717 4.75721 70.4272C4.36876 70.4827 3.63222 69.4533 3.63222 68.1967C3.33963 68.8124 3.11766 69.9377 2.80488 69.9377C2.49211 69.9377 0.897967 69.9377 0 69.9377C1.41253 70.407 15.3966 73.344 16.4863 73.6266C17.6213 73.9142 18.7715 74.1716 19.9268 74.3785C20.9963 74.5703 22.0405 74.8579 23.105 75.0699C23.9021 75.2313 24.6991 75.4887 25.4861 75.5695C26.6363 75.6855 30.1727 76.3718 30.7074 76.5888C31.7315 76.9976 32.8111 77.1591 33.8503 77.3306C35.0207 77.5224 42.3507 79.006 42.9107 79.1877C44.4443 79.6923 45.9981 80.0607 47.6275 79.9901C48.9846 79.9346 66.8733 79.44 68.6036 79.3996C70.2987 79.3593 99.2657 78.6376 103.463 78.5317C103.498 78.5317 103.534 78.4106 103.619 78.2491C102.984 78.2541 96.7887 77.6031 96.592 77.5426ZM32.6698 61.8686C32.7859 61.8131 32.9372 61.8131 33.0684 61.7979C35.4899 61.5002 37.8357 60.6776 40.3429 60.6322C40.3429 60.9451 40.3429 61.1671 40.3429 61.3942C39.1271 61.6718 33.7141 62.0351 33.134 62.348C32.8515 62.5044 32.4126 62.3732 31.8375 62.3732C32.2461 62.1209 32.4479 61.9746 32.6698 61.8686ZM29.2142 70.19C29.0881 70.8713 28.972 71.5576 28.8358 72.2338C28.6441 73.1573 27.948 75.1556 27.055 75.1556C26.1621 75.1556 24.7092 70.8814 24.8505 70.0538C24.4015 70.5836 23.781 73.5105 22.9082 74.212C22.429 74.2574 22.1515 74.0909 21.8942 73.6569C21.4503 72.905 21.2586 72.0673 21.077 71.2599C20.5221 68.7821 20.7188 66.2488 20.8147 63.7408C20.85 62.8072 21.304 60.8795 21.304 60.8795C21.304 60.8795 21.9447 59.1133 22.6762 59.1486C23.4077 59.1839 23.9021 60.7533 24.2098 61.7121C24.4015 62.3026 24.4872 62.9283 24.7698 63.5238C24.7698 62.7769 26.0108 58.2604 27.3981 58.3513C28.7854 58.4421 29.0679 62.2773 29.2445 63.3774C29.5219 62.7012 29.416 60.6171 29.6178 60.0923C29.648 60.3294 29.7035 60.5717 29.7035 60.8088C29.7086 63.4531 29.6934 66.0974 29.7187 68.7417C29.7237 69.2817 29.7742 72.1783 29.3756 73.0412C29.3807 73.0362 29.3857 73.0311 29.3908 73.0261C29.4109 73.0463 29.4261 73.0614 29.4462 73.0816C29.3756 73.1623 29.2596 70.1951 29.2142 70.19ZM30.4804 73.5963C30.3644 73.6064 30.2635 72.6627 30.2736 72.1833C30.2837 71.6585 30.2786 71.1287 30.2786 70.5988C30.4804 70.3969 30.5813 70.296 30.7024 70.1749C30.8336 70.296 30.9647 70.4222 31.0959 70.5433C30.8941 71.5576 30.6873 72.5618 30.4804 73.5963ZM31.2876 73.8537C31.0051 72.5366 31.1362 71.5172 31.5499 70.4423C31.7315 70.4726 31.8223 70.4878 31.9787 70.518C31.7668 71.5425 31.555 72.5669 31.2876 73.8537ZM32.2764 70.4827C32.5185 70.4827 32.6497 70.4827 32.8515 70.4827C33.0129 71.6131 32.3117 72.5416 32.1755 73.5862C31.7214 72.5114 32.4933 71.5526 32.2764 70.4827ZM33.2147 73.4248C33.2147 72.3953 33.2147 71.4466 33.2147 70.4827C33.4921 70.4827 33.7141 70.4827 34.0925 70.4827C33.6536 71.4516 33.7999 72.5063 33.2147 73.4248ZM35.4192 73.3137C35.3537 73.3036 35.2931 73.2986 35.2275 73.2885C35.2275 72.4861 35.2275 71.6787 35.2275 70.8461C35.3385 70.735 35.4747 70.5988 35.6109 70.4625C35.7118 70.5584 35.8127 70.6543 35.954 70.7906C35.7825 71.6131 35.6008 72.4659 35.4192 73.3137ZM36.6552 72.0521C36.6602 72.6325 36.4635 73.1068 36.176 73.7174C35.8228 72.5114 36.2466 71.5172 36.4332 70.4827C36.5644 70.4827 36.6956 70.4827 36.8065 70.4827C37.1294 71.0731 36.6502 71.5475 36.6552 72.0521ZM37.1748 73.6165C37.084 73.5963 36.9932 73.5761 36.9024 73.556C37.0285 72.6728 37.1546 71.7897 37.2959 70.8057C37.3615 70.7956 37.5229 70.7653 37.76 70.7249C37.8811 71.82 37.3362 72.6779 37.1748 73.6165ZM38.0022 74.1262C37.6288 73.3793 37.9113 72.9504 38.0425 72.4558C38.1787 71.9361 38.0728 71.3507 38.0728 70.7704C38.2947 70.7704 38.4209 70.7704 38.6025 70.7704C38.8144 71.9058 38.2493 72.8646 38.0022 74.1262ZM39.1675 73.6014C38.9707 72.6628 38.8345 71.7544 39.1725 70.8006C39.2533 70.8006 39.5156 70.8006 39.788 70.8006C39.5711 71.7746 39.3693 72.688 39.1675 73.6014ZM40.0907 67.5659C37.8306 67.571 35.5706 67.5558 33.3105 67.5811C32.7253 67.5861 32.1401 67.7022 31.4591 67.7779C31.449 67.6517 31.4389 67.5609 31.4238 67.3641C32.3672 67.2631 38.0022 66.5112 39.904 66.6979C40.0049 66.708 40.3681 67.1218 40.3934 67.4549C40.2572 67.5054 40.1714 67.5659 40.0907 67.5659ZM61.1677 59.845C62.1918 59.845 64.2954 59.845 64.2954 59.845V62.0402L61.1677 61.8282C61.1677 61.8282 61.1677 60.4859 61.1677 59.845ZM37.5229 33.2607C37.5229 29.8191 37.5229 26.5188 37.5229 23.1579C38.0728 23.1579 38.6176 23.1579 39.5004 23.1579C38.7236 23.385 38.2493 23.5263 37.6339 23.708C38.552 24.3791 39.2533 23.3446 40.1159 23.7938C39.8637 23.93 39.6821 24.0511 39.4803 24.1319C39.1927 24.2479 38.8951 24.3489 38.5974 24.4397C38.3401 24.5154 38.0778 24.5659 37.8155 24.6315C37.8205 24.7021 39.1271 24.8485 39.7779 24.8485C39.783 24.8989 39.783 24.9494 39.788 24.9998C39.112 25.1714 38.436 25.338 37.765 25.5095C37.7701 25.56 39.0716 25.6609 39.8687 25.6609C38.9506 26.2715 38.9506 26.2715 37.8054 26.3725C37.8054 26.4986 38.32 26.7308 38.4562 26.6601C38.885 26.761 39.3441 26.867 39.8788 26.9932C39.1322 27.1799 38.4612 27.3515 37.7852 27.523C37.7903 27.5836 39.2936 27.7097 40.0402 27.7097C40.0503 27.7753 38.7437 28.2497 38.0728 28.4263C38.0879 28.5525 38.9808 28.6534 39.445 28.5373C39.4853 28.7644 38.3654 29.3498 37.7903 29.5163C37.8004 29.592 39.3087 29.7384 40.0554 29.7384C40.0604 29.7888 38.5167 30.3793 37.7449 30.6215C37.755 30.6921 39.1271 30.9192 39.8031 30.9546C39.1372 31.2573 38.3402 31 37.76 31.767C38.4814 31.767 39.1322 31.767 39.783 31.767C39.1624 32.2262 38.2897 31.7418 37.8458 32.5795C38.1535 32.5946 38.5167 32.6098 38.8749 32.6249C39.1826 32.64 39.4954 32.6602 39.8031 32.8318C39.0565 32.9731 38.3149 33.1144 37.5229 33.2607ZM45.0093 24.4902C44.9942 27.1698 44.9992 29.8494 44.9992 32.5694C43.6977 32.6199 42.7694 33.9975 41.2964 33.3718C41.2964 30.6366 41.2964 27.8208 41.2964 24.9544C42.4415 24.3791 43.6472 23.7786 44.5906 23.5515C44.9942 23.385 45.09 23.5717 45.2313 23.8947C45.2363 23.8846 45.2414 23.8796 45.2414 23.8695C45.2414 23.8644 45.2464 23.8594 45.2464 23.8543C45.2464 23.8392 45.2464 23.8442 45.2464 23.8543C45.2464 23.8644 45.2464 23.8846 45.2464 23.9351C45.2414 23.9199 45.2363 23.9098 45.2313 23.8997C45.1506 24.0915 45.0093 24.2883 45.0093 24.4902ZM45.3322 20.8467C44.1517 21.1293 42.8905 21.0738 41.7756 21.644C41.589 21.7399 41.3115 21.6592 41.1097 21.6592C40.121 19.3782 39.1473 17.1326 38.1081 14.7406C38.1081 13.3528 38.1081 11.9146 38.1081 10.3301C40.4337 13.6556 42.3306 17.0821 44.3333 20.5439C44.7924 20.2512 47.7688 20.0342 47.9403 20.1099C47.8546 20.3017 47.8344 20.4379 47.7789 20.4581C46.9768 20.7003 46.1091 20.66 45.3322 20.8467ZM46.4874 32.6754C46.4874 29.2691 46.4874 25.9637 46.4874 22.5221C46.8658 22.5221 56.9704 22.0629 58.4233 21.9367C59.0085 21.8862 59.5887 21.755 60.2899 21.644C60.2899 24.0764 60.2899 26.3826 60.2899 28.7745C58.0803 29.6324 48.914 32.3373 46.4874 32.6754ZM50.604 48.2484C53.2121 48.2484 55.8404 48.2484 58.5999 48.2484C58.6806 48.5361 58.6251 52.3511 58.4738 52.5025C55.8959 52.5025 53.2625 52.5025 50.5787 52.5025C50.493 52.4167 50.4778 48.3746 50.604 48.2484ZM54.5288 76.5232C54.5389 76.5333 54.549 76.5434 54.559 76.5535C54.4935 76.6342 54.4228 76.5636 54.5036 76.498C54.5086 76.503 54.5187 76.5081 54.5288 76.5232C54.4077 74.7318 54.7205 70.5029 54.7205 70.5029L53.0809 76.2356C53.0809 76.2356 53.3231 70.0336 53.2323 69.8973C52.9145 72.259 52.5109 74.5955 51.4918 76.8664C51.0075 75.6956 51.512 70.1598 51.512 70.1598C51.512 70.1598 50.725 74.434 49.9986 76.7251C49.8472 75.7864 50.0944 69.8822 50.0944 69.8822L49.5546 72.5871C49.5546 72.5871 49.0956 74.8529 48.6567 75.9479C48.243 76.9723 47.7284 77.8403 46.8305 78.5367C46.5984 78.5367 46.3109 78.5367 45.993 78.5367C44.7722 77.4417 44.2072 75.9883 43.8339 74.4138C43.5211 73.1119 43.4101 71.7847 43.2033 70.4777C42.946 68.8679 42.9864 65.6836 42.9864 65.6836C42.9864 65.6836 43.2537 52.0786 47.1382 51.7607C48.7576 52.5025 48.7929 54.9702 48.7929 54.9702C48.7929 54.9702 49.1763 58.2806 49.368 59.9308C49.7009 62.7921 50.4778 65.5322 52.6874 67.6366C53.6661 68.5651 55.906 69.9781 55.906 69.9781C55.906 69.9781 54.6246 76.4475 54.5288 76.5232ZM56.0876 76.8109C56.2642 76.0943 56.2692 74.6662 56.2692 74.6662L56.698 70.1799C56.698 70.1799 57.6868 70.6694 58.2468 70.9016C57.9794 71.8654 56.5921 75.847 56.0876 76.8109ZM61.1626 71.1741C59.4928 70.8259 56.4004 69.645 55.6084 68.9991C53.8023 67.5256 52.2738 65.8199 51.628 63.4784C51.2598 62.136 50.942 60.7988 51.0428 59.3858C51.0731 58.9922 51.0983 57.7861 51.1538 57.8113C52.4806 58.321 56.5013 57.7558 56.804 57.8618C55.5983 58.7096 54.0596 58.6591 52.6874 59.3757C54.5439 59.633 56.2642 59.8652 57.9844 60.1024C57.9844 60.1579 57.9895 60.2083 57.9895 60.2638C56.6577 60.612 55.3258 60.9602 53.9739 61.3135C54.4127 61.6617 58.5948 62.2218 59.059 62.4388C58.6756 63.2008 55.1089 63.8468 55.0938 64.0032C56.7384 64.2908 58.388 64.5785 60.0376 64.8712C60.1133 64.8863 57.8835 65.618 56.582 66.2841C58.3275 66.5869 61.768 67.2884 62.0959 67.4549C61.097 67.8384 60.1537 68.2018 59.1699 68.5802C59.1699 68.661 61.319 69.0798 62.3381 69.3372C63.4479 69.6198 64.5426 69.9024 65.7231 69.9024C65.7534 70.0588 63.4832 71.6535 61.1626 71.1741ZM82.507 75.7764C82.3758 75.7612 75.0458 74.7923 75.0004 74.7923C73.7947 74.6964 67.6805 73.9344 67.5846 73.9243C66.7169 73.8486 65.8542 73.7729 64.7797 73.6771C64.9563 72.6728 65.0925 71.9058 65.2388 71.0883C71.459 71.0883 77.6741 71.0883 84.0305 71.0883C84.5501 72.7082 84.5299 74.535 85.5843 76.2103C84.9436 76.0993 83.0115 75.842 82.507 75.7764ZM90.0035 61.8181L86.9262 61.5961L86.7597 59.7996L90.0035 59.4817V61.8181ZM93.8476 76.3214C94.0343 74.323 94.5438 72.4407 94.2865 70.2304C94.0645 70.9218 92.6116 76.2154 92.4098 76.4929C92.3897 76.1599 92.5864 71.0378 92.4653 71.0378C92.1425 72.7334 91.9104 74.4088 91.0225 75.9984C90.6644 75.1153 91.184 71.1287 91.184 71.1287C91.184 71.1287 93.7164 69.4482 95.1845 68.4692C94.2865 68.4692 92.6924 68.4692 92.6924 68.4692L96.3801 66.5264L94.342 65.6988L98.0701 64.4624L95.129 63.4885L98.4232 61.9392L95.7848 61.0763L97.0813 60.5414L98.6452 59.951L95.8655 59.1183L98.398 58.3714C98.398 58.3714 99.4675 58.0737 99.8357 58.9013C99.8357 60.1629 99.6793 63.761 99.1345 65.4969C98.5846 67.248 97.4193 68.5651 95.7596 69.5946C95.6032 69.6904 95.4569 69.8015 95.3207 69.9276C95.2702 69.9781 95.25 70.0639 95.2097 70.1497C95.2248 70.1497 94.0696 76.0993 93.8476 76.3214ZM95.7495 73.3137C95.7495 73.3137 95.81 71.3154 95.81 70.2102C96.5062 69.7258 97.9439 68.5399 98.5695 68.3935C99.0033 69.2312 97.833 74.3936 97.3234 75.2112C97.3083 74.4492 97.278 70.0992 97.278 70.0992C97.278 70.0992 96.6474 74.1767 95.5679 76.1902C95.6435 75.2364 95.7495 73.3137 95.7495 73.3137Z" fill="#4985C5"/>
<path d="M2.8554 54.4202L8.32896 52.3159L16.1281 49.5454C16.1281 49.5454 18.9986 48.5008 18.9885 48.4907C19.0541 48.41 19.044 48.5463 19.044 48.5463L15.4269 50.7818L12.4858 52.3462L7.72863 55.1419C7.72863 55.1419 4.14181 57.1352 2.34083 58.1192C2.18445 58.205 1.85149 58.3513 1.85149 58.3513L9.22692 56.6608L14.9426 55.1318L16.678 54.7028C16.678 54.7028 13.2123 56.5044 11.714 57.1453C9.56492 58.0687 5.33742 60.0772 5.33742 60.0772L4.01065 60.6878L1.98266 61.8031L4.15695 61.475L7.55207 60.6071L10.9522 59.7744L14.2263 58.9922L16.9908 58.3312L19.9218 57.7407L26.9996 56.0149L29.078 55.379C29.078 55.379 29.078 19.6104 29.078 1.63525C28.8611 1.8472 28.7451 1.96831 28.624 2.08438C19.7856 10.9307 1.83636 28.9815 1.70015 29.1632C1.84645 29.1632 11.1843 22.83 11.1843 22.83L14.9073 20.3875L21.5109 15.8054L25.5417 13.0199C25.5417 13.0199 24.0383 14.5489 23.3573 15.1595C22.2323 16.1688 21.2486 17.3093 20.0378 18.2378C18.8523 19.1512 16.6881 21.2807 16.6881 21.2807C16.6881 21.2807 14.7257 23.163 13.6613 24.0361C11.946 25.449 1.9877 34.9362 1.9877 34.9362C1.9877 34.9362 2.19958 34.9715 2.27021 34.9312C3.15304 34.3963 4.03083 33.8563 4.90862 33.3113C6.51285 32.3171 8.10699 31.3079 9.71627 30.3188C10.8211 29.6426 11.9561 29.0017 13.0609 28.3255C14.4785 27.4575 17.2985 25.6963 17.2985 25.6963C17.2985 25.6963 23.7659 21.6088 24.2098 21.6542C24.1998 21.6441 24.1947 21.639 24.1846 21.6289C24.2502 21.5482 24.2149 21.6592 24.2149 21.6592C24.2149 21.6592 16.1836 28.6131 14.5592 30.0412C13.2627 31.1817 11.9057 32.2566 10.6294 33.4173C9.07054 34.8403 1.5135 41.2997 1.5135 41.2997C1.5135 41.2997 3.61716 40.2954 4.35369 39.8665C6.24043 38.7614 8.1978 37.7672 10.0845 36.657C10.8211 36.223 11.603 35.8698 12.3042 35.4106C14.1506 34.2045 18.0048 32.0901 18.0048 32.0901L21.9044 30.0311L19.2912 32.2263C19.2912 32.2263 17.2531 33.8311 16.229 34.6183C14.7408 35.7638 13.1971 36.8387 11.7392 38.0296C11.2045 38.4636 10.0896 39.271 10.0896 39.271L7.11822 41.5015L1.9877 45.6244L14.0548 40.0078L22.1617 36.112C22.1617 36.112 20.734 37.2121 20.28 37.4998C16.9101 39.6192 13.6764 41.9406 10.3216 44.0853C7.54198 45.8616 4.9187 47.8801 2.02806 49.4899C2.02806 49.4899 1.80609 49.7069 1.69511 49.8179C4.86321 48.8087 7.93042 47.6581 10.9875 46.4924C14.0295 45.3317 20.1942 43.2072 20.1942 43.2072C20.1942 43.2072 7.68323 50.8726 1.42773 54.7028C1.95743 54.7381 2.8554 54.4202 2.8554 54.4202Z" fill="#4985C5"/>
<path d="M35.1875 53.8549C35.1875 43.7723 35.1875 33.6694 35.1824 23.5666C35.1824 23.5313 35.1421 23.4859 35.1068 23.4556C35.0765 23.4253 35.0311 23.4102 34.8747 23.3193C33.2553 24.6062 31.5956 25.9233 30.0469 27.1495C30.0469 37.545 30.0469 47.7791 30.0469 58.0282C32.2666 57.5286 34.4005 56.8928 36.6303 56.8272C36.6303 56.0198 36.6303 55.2981 36.6303 54.5765C36.5294 54.4857 36.4335 54.3898 36.3427 54.2889C35.9644 54.1476 35.5911 54.0063 35.1875 53.8549Z" fill="#4985C5"/>
<path d="M29.6035 10.2695C30.2291 9.92635 31.2935 9.34602 31.2935 9.34602C31.2935 9.34602 30.2038 11.2485 29.7397 12.061C29.7801 12.1064 31.8837 10.8953 31.8837 10.8953C31.8837 10.8953 29.7902 14.0946 29.8204 14.1249C29.886 14.0442 32.0401 12.934 32.0401 12.934L30.1736 15.5631C30.0676 15.7145 30.0525 15.9315 29.9718 16.1838C30.7991 15.6691 32.3983 14.6649 32.3983 14.6649L30.0323 18.4093C30.0323 18.4093 31.3339 17.6473 31.9544 17.2436C32.1158 17.1376 32.7313 16.9156 32.7313 16.9156C32.7313 16.9156 30.9656 19.1511 30.1887 20.1654C30.0727 20.3168 30.0424 20.5288 29.9415 20.8013C30.5217 20.5237 31.3894 20.1049 31.3894 20.1049L32.7868 19.247L29.8608 23.4405L32.5597 21.9165C32.5597 21.9165 32.6001 21.9569 32.59 21.9468C32.59 22.0881 32.5799 22.3707 32.5799 22.3707C32.5799 22.3707 30.9505 24.581 30.1483 25.7013C30.0475 25.8375 30.0676 26.0596 30.0323 26.2412C32.0906 24.6365 34.0934 23.0721 36.0305 21.5633C36.0305 17.7987 36.0305 14.1502 36.0305 10.7035C34.3708 7.87753 32.8523 5.16258 30.33 3.17432C30.1584 3.18441 29.9365 3.1945 29.6792 3.20964C29.8003 3.64867 29.8911 3.98678 29.9869 4.32993C29.9768 4.31984 29.9617 4.3047 29.9617 4.3047C29.9617 4.3047 29.9516 4.44095 30.0172 4.36021C30.0121 4.35517 30.2038 4.45609 30.3199 4.5217C30.108 4.94559 29.659 5.85898 29.659 5.85898C29.659 5.85898 30.2946 5.64199 30.7436 5.4906C30.3905 6.06588 30.1685 6.42922 29.881 6.89349C30.3047 6.78751 30.562 6.72696 30.9757 6.62603C30.5671 7.19627 29.997 8.01883 29.997 8.01883L30.9656 7.74128L30.4309 8.94231C30.4359 8.93726 29.9819 9.66394 29.6035 10.2695Z" fill="#4985C5"/>
<path d="M63.5176 29.9301C63.9464 30.0613 64.3651 30.2581 64.7989 30.3086C66.0046 30.4448 73.9602 31.4238 74.4092 31.4844C74.9036 31.55 82.5615 32.5794 83.8984 32.7005C83.9993 32.8065 86.4712 52.0685 86.5772 53.4714C86.5822 53.5521 86.7033 53.7035 86.7033 53.7035C86.7033 53.7035 86.9303 31.4642 86.7285 30.0361C80.5789 30.031 64.7788 29.8897 63.5176 29.9301Z" fill="#4985C5"/>
<path d="M63.5984 28.5627C65.7273 28.5627 67.8713 28.5627 70.091 28.5627C70.7216 27.6139 70.2272 26.534 70.4643 25.4743C71.5691 25.0807 72.7344 24.6618 73.9906 24.2127C73.3549 23.7787 63.5984 22.391 62.9123 22.3203C62.766 24.1774 63.4773 28.4415 63.5984 28.5627Z" fill="#4985C5"/>
<path d="M35.6555 6.92379C35.6908 6.96416 35.8371 6.91874 35.9884 6.90865C35.9884 5.49567 35.9884 4.08269 35.9884 2.6798C35.8724 2.56373 35.7715 2.4628 35.6656 2.35683C34.9845 2.23572 34.2984 2.31141 33.6174 2.30637C32.8102 2.30132 32.0031 2.30637 30.9336 2.30637C31.9526 3.07341 32.8052 3.56796 33.4711 4.24922C34.2783 5.06168 34.924 6.03058 35.6555 6.92379Z" fill="#4985C5"/>
<path d="M94.5389 50.1612L92.299 48.8138C92.299 48.8138 91.9409 48.8037 91.6785 48.8037C91.6785 49.7575 91.6735 50.6507 91.6886 51.5439C91.6886 51.5893 94.5389 50.1612 94.5389 50.1612Z" fill="#4985C5"/>
<path d="M97.3982 50.4685L94.9414 48.7881C94.9414 48.7881 94.9414 50.0345 94.9414 50.6048C94.9414 50.9328 94.9414 51.2608 94.9414 51.9168C95.4257 51.5535 97.3982 50.4685 97.3982 50.4685Z" fill="#4985C5"/>
<path d="M4.37434 68.4338C4.52568 68.4338 4.62153 68.4338 4.7981 68.4338C5.35302 66.8897 5.36311 65.3505 4.77792 63.8013C4.57613 63.8315 4.48532 63.8467 4.37434 63.8669C4.09687 64.5935 4.11201 67.7021 4.37434 68.4338Z" fill="#4985C5"/>
<path d="M2.407 64.1089C1.98828 65.0576 1.98828 65.0576 1.98828 66.2738C1.98828 67.5758 1.98828 67.5758 2.50285 68.3731C3.13344 67.1115 2.5432 64.235 2.407 64.1089Z" fill="#4985C5"/>
<path d="M45.2415 23.854C45.2415 23.859 45.2415 23.864 45.2365 23.869C45.2316 23.879 45.2266 23.884 45.2266 23.894C45.2316 23.909 45.2365 23.919 45.2415 23.9291C45.2415 23.884 45.2415 23.864 45.2415 23.854Z" fill="#4985C5"/>
<path d="M45.2422 23.8539C45.2471 23.8391 45.2422 23.8391 45.2422 23.8539V23.8539Z" fill="#4985C5"/>
<path d="M36.6294 54.5767C36.5285 54.4859 36.4326 54.39 36.3418 54.2891L36.6294 54.5767Z" fill="#4985C5"/>
<path d="M46.8558 59.7033C46.4926 57.4325 45.9427 56.3979 45.5694 56.3979C45.1961 56.3979 45.1658 56.9732 44.9993 57.17C44.621 57.6091 44.0862 61.8177 44.1316 63.4528C44.1468 64.0281 44.2224 69.2006 44.737 71.1434C44.8934 71.7288 45.5795 72.8239 45.7258 72.8239C45.8721 72.8239 46.0133 72.3445 46.1546 72.1174C46.8356 70.9819 46.9214 69.6699 46.9819 68.4335C47.1131 65.8447 47.219 61.9742 46.8558 59.7033ZM45.2919 68.3477C44.7773 68.3477 44.9489 60.3896 45.5341 61.0658C46.0284 61.081 45.8065 68.3477 45.2919 68.3477Z" fill="#4985C5"/>
<path d="M26.7269 61.6108C26.4797 61.6108 26.3838 61.8531 25.9449 63.2307C25.506 64.6084 25.6523 67.4041 25.6523 67.4041C25.6523 67.4041 26.2325 71.8751 26.4544 71.8751C26.6764 71.8751 26.9892 71.2191 27.0951 70.9567C27.5239 69.8818 27.5542 68.7111 27.6349 67.5908C27.7358 66.1576 27.534 64.6891 27.3726 63.2459C27.312 62.7412 26.969 61.6108 26.7269 61.6108Z" fill="#4985C5"/>
<path d="M22.3078 62.3833C21.087 63.0191 21.2787 66.7635 21.3392 67.7173C21.3947 68.5853 21.5662 69.4482 21.6974 70.3818C21.7832 70.5483 21.8992 70.7855 22.0304 71.0176C22.0455 71.0429 22.1161 71.0328 22.2876 71.058C22.3936 70.9621 22.6458 70.8713 22.6761 70.6997C22.7064 70.5281 23.9474 67.3489 22.6811 62.7164C22.55 62.5952 22.3835 62.4489 22.3078 62.3833Z" fill="#4985C5"/>
<path d="M48.1617 23.2181C48.3786 25.1054 47.7228 30.7119 47.5664 31.4992C50.8405 30.4546 53.9783 29.4554 57.1111 28.4562C57.4491 27.4469 58.9877 23.3947 59.1693 22.2139C58.1654 22.2896 49.5843 22.6176 48.1617 23.2181Z" fill="#4985C5"/>
<path d="M57.2184 50.7058C57.0217 50.3021 55.2509 49.0859 54.8221 49.0859C54.8221 50.0498 54.807 51.0136 54.8373 52.0633C55.483 51.7403 56.8451 50.7815 57.2184 50.7058Z" fill="#4985C5"/>
<path d="M54.2659 50.5041C54.6997 50.9381 52.3186 49.182 51.8848 48.96C51.8848 50.0752 51.8848 50.9987 51.8848 52.2603C52.1622 51.7859 53.7715 50.6808 54.2659 50.5041Z" fill="#4985C5"/>
<path d="M43.8297 24.1219C43.6077 24.2733 43.3504 24.3742 43.1487 24.5508C42.8964 24.7678 42.6845 25.0353 42.4727 25.2623C42.4727 27.0084 42.4727 28.7746 42.4777 30.5358C42.4777 30.561 42.5483 30.5863 42.6139 30.6317C42.8712 30.5207 43.1436 30.4046 43.3757 30.3087C43.981 30.773 43.5169 31.7419 44.425 32.0043C44.3998 31.0909 44.5965 30.228 44.6621 29.3701C44.8134 27.5181 44.7075 25.6459 44.7075 23.7232C44.1526 23.5466 44.0668 23.9604 43.8297 24.1219Z" fill="#4985C5"/>
<path d="M112.326 48.4048H114.884V60.6422H122.542V62.9736H112.326V48.4048Z" fill="#4985C5"/>
<path d="M125.352 48.4048H127.909V62.9736H125.352V48.4048Z" fill="#4985C5"/>
<path d="M131.799 48.4048H137.227C141.803 48.4048 144.966 51.5487 144.966 55.6917C144.966 59.7944 141.803 62.9787 137.227 62.9787H131.799V48.4048ZM137.232 60.6473C140.289 60.6473 142.287 58.5884 142.287 55.6917C142.287 52.8405 140.289 50.7362 137.232 50.7362H134.362V60.6422H137.232V60.6473Z" fill="#4985C5"/>
<path d="M148.074 48.4048H158.875V50.6958H150.637V54.4857H157.942V56.7767H150.637V60.6876H158.981V62.9787H148.079V48.4048H148.074Z" fill="#4985C5"/>
<path d="M162.013 48.4048H168.505C171.916 48.4048 173.913 50.2366 173.913 53.0474C173.913 55.4394 172.476 56.8776 170.438 57.458L174.367 62.9736H171.351L167.729 57.897H164.566V62.9736H162.008V48.4048H162.013ZM168.319 55.6312C170.15 55.6312 171.315 54.6724 171.315 53.1534C171.315 51.5941 170.19 50.7413 168.299 50.7413H164.576V55.6312H168.319Z" fill="#4985C5"/>
<path d="M97.9295 23.7938H91.457V20.4683H108.019V23.7938H101.547V40.8858H97.9295V23.7938Z" fill="#333333"/>
<path d="M111.812 20.4683H120.907C125.69 20.4683 128.49 23.0369 128.49 26.973C128.49 30.3289 126.477 32.3424 123.621 33.1548L129.13 40.8858H124.903L119.828 33.7705H115.393V40.8858H111.807V20.4683H111.812ZM120.645 30.5913C123.213 30.5913 124.842 29.2489 124.842 27.1194C124.842 24.9343 123.268 23.7383 120.615 23.7383H115.393V30.5913H120.645Z" fill="#333333"/>
<path d="M132.572 32.2212V20.4683H136.159V32.0749C136.159 35.8647 138.111 37.9085 141.32 37.9085C144.498 37.9085 146.45 35.9858 146.45 32.2212V20.4683H150.037V32.0497C150.037 38.1457 146.597 41.2088 141.259 41.2088C135.957 41.2088 132.572 38.1457 132.572 32.2212Z" fill="#333333"/>
<path d="M154.062 30.6771C154.062 24.8738 158.406 20.1201 164.591 20.1201C168.354 20.1201 170.624 21.4322 172.582 23.2993L170.276 25.9537C168.642 24.4348 166.896 23.4154 164.561 23.4154C160.651 23.4154 157.826 26.6249 157.826 30.6771C157.826 34.6738 160.656 37.9388 164.561 37.9388C167.068 37.9388 168.672 36.9195 170.423 35.2844L172.728 37.6159C170.599 39.8312 168.269 41.2341 164.445 41.2341C158.497 41.2341 154.062 36.5965 154.062 30.6771Z" fill="#333333"/>
<path d="M176.486 20.4683H180.073V30.7376L189.784 20.4683H194.188L185.703 29.2489L194.567 40.8858H190.223L183.256 31.6964L180.078 34.9614V40.8808H176.491V20.4683H176.486Z" fill="#333333"/>
</g>
<defs>
<clipPath id="clip0">
<rect width="194.576" height="80" fill="white"/>
</clipPath>
</defs>
</svg>
