<svg width="11" height="11" viewBox="0 0 11 11" fill="none" xmlns="http://www.w3.org/2000/svg">
<g clip-path="url(#clip0)">
<path d="M4.55559 6.44502C3.50566 5.39509 3.26859 4.34515 3.21511 3.9245C3.20016 3.80819 3.24019 3.69154 3.3234 3.60891L4.17306 2.75964C4.29804 2.63473 4.32022 2.44006 4.22654 2.29024L2.87373 0.18962C2.77009 0.0237186 2.55728 -0.0361568 2.38233 0.051361L0.210592 1.07417C0.0691206 1.14383 -0.0140911 1.29414 0.00197146 1.45102C0.115765 2.53205 0.587058 5.1895 3.19861 7.80124C5.81016 10.413 8.46723 10.8841 9.54883 10.9979C9.70571 11.0139 9.85602 10.9307 9.92568 10.7893L10.9485 8.61752C11.0357 8.44295 10.9762 8.23071 10.811 8.12688L8.71037 6.77445C8.56063 6.68067 8.36597 6.70269 8.24097 6.82755L7.3917 7.67721C7.30907 7.76042 7.19242 7.80044 7.07611 7.7855C6.65545 7.73202 5.60552 7.49495 4.55559 6.44502V6.44502Z" fill="#333333"/>
<path d="M8.72454 5.87924C8.51506 5.87924 8.34523 5.70942 8.34523 5.49993C8.34346 3.92951 7.07082 2.65688 5.5004 2.6551C5.29092 2.6551 5.12109 2.48528 5.12109 2.27579C5.12109 2.06631 5.29092 1.89648 5.5004 1.89648C7.48962 1.89868 9.10166 3.51071 9.10385 5.49993C9.10385 5.70942 8.93403 5.87924 8.72454 5.87924Z" fill="#333333"/>
<path d="M10.6211 5.87931C10.4116 5.87931 10.2418 5.70949 10.2418 5.5C10.2389 2.88262 8.11778 0.761547 5.5004 0.758621C5.29092 0.758621 5.12109 0.588798 5.12109 0.37931C5.12109 0.169823 5.29092 0 5.5004 0C8.53658 0.00334473 10.9971 2.46382 11.0004 5.5C11.0004 5.6006 10.9604 5.69708 10.8893 5.76821C10.8182 5.83935 10.7217 5.87931 10.6211 5.87931Z" fill="#333333"/>
</g>
<defs>
<clipPath id="clip0">
<rect width="11" height="11" fill="white"/>
</clipPath>
</defs>
</svg>
