<svg width="28" height="28" viewBox="0 0 28 28" fill="none" xmlns="http://www.w3.org/2000/svg">
<g clip-path="url(#clip0)">
<path d="M27.6763 2.44555C27.4256 2.23668 27.0806 2.18233 26.7779 2.30394L1.40213 12.5773C1.17262 12.6701 1.22678 12.8998 1.31956 13.1293C1.41235 13.3588 1.67368 13.4697 1.90319 13.3769L26.0995 3.54739L13.8517 17.9213C13.6918 18.1101 13.8896 18.2623 14.0784 18.4223C14.2673 18.5823 14.55 18.5589 14.71 18.3701L26.9459 3.93406L25.487 11.2573L24.0173 21.0777C23.9972 21.2151 23.9144 21.3355 23.7933 21.4035C23.6771 21.4683 23.5372 21.4748 23.4155 21.421L17.3052 19.0184L14.373 17.7907C14.1449 17.695 13.8823 17.8022 13.7865 18.0304C13.7767 18.0611 13.7704 18.0928 13.7677 18.125H13.7569L12.3011 23.7464L10.2123 16.4496L27.2395 3.737C27.3787 3.64558 27.4557 3.48459 27.4395 3.31887C27.4233 3.15316 27.3165 3.01012 27.1623 2.94743C27.0081 2.88473 26.8318 2.91272 26.7045 3.0201L9.62128 15.7707L1.73254 12.5773C1.50361 12.4866 1.24432 12.5975 1.15196 12.8258C1.0596 13.0541 1.16881 13.3141 1.39649 13.4081L9.32734 16.6172L11.4422 24.0005C11.5523 24.3818 11.902 24.6439 12.2989 24.6425H12.3092C12.5256 24.6387 12.733 24.5552 12.8917 24.4082C12.9074 24.3988 12.9223 24.3883 12.9365 24.3769L17.2675 19.9481L23.0745 22.2508C23.4477 22.4093 23.8734 22.3855 24.2265 22.1863C24.5904 21.9844 24.8399 21.625 24.9018 21.2135L26.3674 11.4115L27.9805 3.31887C28.0476 2.99395 27.9307 2.65842 27.6763 2.44555ZM13.5571 22.4636L14.503 18.8176L15.9843 19.4395L16.3661 19.5909L13.5571 22.4636Z" fill="#4985C5" stroke="#4985C5" stroke-width="0.25"/>
</g>
<defs>
<clipPath id="clip0">
<rect width="28" height="28" fill="white"/>
</clipPath>
</defs>
</svg>
